<?xml version="1.0" standalone="no"?>
<!DOCTYPE svg PUBLIC "-//W3C//DTD SVG 20010904//EN"
 "http://www.w3.org/TR/2001/REC-SVG-20010904/DTD/svg10.dtd">
<svg version="1.0" xmlns="http://www.w3.org/2000/svg"
 width="1080.000000pt" height="1920.000000pt" viewBox="0 0 1080.000000 1920.000000"
 preserveAspectRatio="xMidYMid meet">

<g transform="translate(0.000000,1920.000000) scale(0.100000,-0.100000)"
fill="#000000" stroke="none">
<path d="M1075 19138 c7 -88 27 -443 90 -1593 59 -1087 65 -1190 71 -1250 3
-22 5 -76 5 -120 0 -44 4 -98 9 -120 7 -32 8 -27 4 28 -9 105 30 129 52 32 l8
-40 4 43 c2 23 7 42 13 42 5 0 9 4 9 10 0 5 -7 7 -15 4 -9 -4 -15 0 -15 10 0
9 5 15 12 14 15 -4 16 -16 -37 602 -69 801 -113 1327 -150 1800 -19 239 -38
472 -41 518 -4 45 -10 82 -15 82 -5 0 -6 -28 -4 -62z m202 -2935 c-3 -10 -5
-2 -5 17 0 19 2 27 5 18 2 -10 2 -26 0 -35z"/>
<path d="M2856 19178 c-3 -13 -10 -61 -16 -108 -6 -47 -47 -362 -91 -700 -44
-338 -84 -646 -89 -685 -4 -38 -20 -158 -34 -265 -14 -107 -25 -204 -25 -215
0 -11 -4 -38 -10 -60 -5 -22 -9 -73 -7 -112 1 -41 -2 -73 -7 -73 -5 0 -4 -7 3
-15 7 -9 10 -19 6 -22 -4 -4 -11 -1 -16 7 -7 11 -8 5 -5 -17 2 -18 -1 -35 -6
-38 -12 -8 -12 -35 1 -35 5 0 7 8 4 18 -5 14 -4 15 5 2 12 -16 11 -18 15 35 1
25 45 48 63 33 7 -6 13 -9 14 -7 7 35 6 37 -13 34 -17 -4 -19 0 -13 22 5 20 3
24 -9 20 -12 -5 -16 1 -17 21 l-1 27 -8 -25 c-6 -20 -8 -21 -8 -5 -1 23 16 67
17 47 1 -7 7 -19 14 -26 10 -11 15 -11 25 0 7 7 12 18 12 23 0 6 9 15 20 21
11 6 20 17 20 25 0 8 5 15 10 15 6 0 10 26 10 58 0 50 4 61 28 83 29 26 52 62
52 80 0 6 15 29 34 52 29 36 32 44 20 55 -20 18 -17 40 5 47 25 8 35 37 27 80
-4 18 0 61 9 96 15 67 19 112 5 69 -7 -23 -8 -23 -9 -3 -1 12 4 25 10 29 7 4
10 29 7 65 -2 33 -1 59 2 59 4 0 10 71 14 158 9 209 46 1124 46 1140 0 8 -18
12 -55 12 -49 0 -55 -2 -59 -22z m51 -1135 c-3 -10 -5 -4 -5 12 0 17 2 24 5
18 2 -7 2 -21 0 -30z m-3 -39 c3 -8 2 -12 -4 -9 -6 3 -10 10 -10 16 0 14 7 11
14 -7z m-15 -306 c1 -10 -3 -18 -9 -18 -5 0 -10 19 -9 43 1 36 2 38 9 17 4
-14 8 -33 9 -42z m-258 -575 c-9 -4 -10 -7 -2 -12 8 -5 9 -16 3 -31 l-9 -24
-7 28 c-7 30 -1 46 17 45 8 0 7 -3 -2 -6z m-1 -179 c0 -2 -9 -4 -20 -4 -11 0
-20 4 -20 9 0 5 9 7 20 4 11 -3 20 -7 20 -9z"/>
<path d="M3510 19058 c0 -119 11 -662 22 -1125 2 -62 7 -113 11 -113 5 0 6 4
3 9 -3 5 3 11 14 14 24 6 25 31 10 337 -9 186 -40 960 -40 1003 0 9 -4 17 -10
17 -6 0 -10 -54 -10 -142z"/>
<path d="M5910 19195 c0 -2 -9 -100 -20 -217 -11 -117 -31 -343 -45 -503 -22
-262 -29 -341 -50 -567 -7 -67 -6 -68 18 -68 20 0 26 6 31 36 4 19 24 69 46
110 l38 74 16 248 c9 136 23 357 31 492 8 135 17 280 21 323 l6 77 -46 0 c-25
0 -46 -2 -46 -5z"/>
<path d="M7807 19068 c-16 -124 -51 -411 -192 -1563 -30 -247 -57 -466 -61
-486 l-5 -37 -86 2 -85 1 -32 -37 -33 -38 -28 30 c-36 37 -59 44 -263 75 -191
29 -220 30 -249 10 -20 -14 -25 -13 -58 10 -44 29 -47 30 -295 55 -213 21
-260 17 -299 -24 -12 -13 -25 -43 -29 -67 l-7 -43 -24 32 c-26 37 -107 93
-203 141 -37 18 -75 43 -86 55 -32 35 -73 153 -102 297 -18 87 -41 166 -65
220 -58 132 -66 159 -67 231 0 46 8 89 26 141 14 42 26 82 26 91 0 13 4 14 24
4 36 -16 54 -4 67 44 16 61 8 208 -14 242 -16 23 -24 26 -75 26 -38 0 -73 -8
-107 -23 -47 -22 -53 -23 -95 -10 -25 8 -62 13 -83 11 l-37 -4 7 36 c4 19 8
58 8 85 0 49 0 50 -33 53 -60 6 -172 -63 -218 -134 -20 -30 -7 -75 36 -119
l30 -31 -20 -39 c-11 -22 -20 -51 -20 -65 0 -40 -11 -70 -26 -70 -22 0 -35
-36 -28 -79 7 -46 38 -101 56 -101 7 0 21 -14 30 -30 19 -33 70 -60 114 -60
26 0 26 -2 21 -42 -3 -23 -13 -47 -21 -54 -9 -6 -64 -14 -123 -18 -142 -9
-195 -27 -255 -87 l-48 -48 -24 32 c-58 76 -57 182 3 300 29 57 29 57 7 57
-12 0 -42 -10 -66 -22 -59 -31 -80 -73 -80 -160 0 -37 -4 -70 -10 -73 -5 -3
-10 -20 -10 -36 0 -43 45 -84 114 -104 31 -9 56 -19 56 -21 0 -3 -7 -18 -14
-33 -8 -15 -20 -59 -26 -97 -21 -127 -31 -159 -61 -196 -37 -47 -45 -69 -54
-150 -6 -54 -13 -73 -37 -100 -38 -42 -71 -107 -94 -183 l-18 -60 -36 215
c-20 118 -42 225 -48 237 -7 13 -25 29 -40 37 -49 25 -143 48 -170 41 -29 -7
-177 -146 -198 -187 -8 -15 -14 -38 -14 -52 0 -20 -9 -29 -44 -45 -24 -10 -52
-31 -62 -46 -10 -15 -35 -89 -55 -164 l-36 -136 -26 86 c-59 192 -160 255
-407 253 -131 -1 -226 -15 -450 -65 -74 -16 -143 -28 -153 -25 -10 2 -14 0
-10 -7 4 -6 -2 -8 -15 -5 -12 4 -20 3 -17 -2 2 -4 -13 -19 -35 -34 -22 -14
-40 -22 -40 -16 0 6 10 15 23 20 12 5 17 9 10 9 -23 2 -43 -11 -43 -28 0 -9
-14 -36 -30 -60 -17 -24 -30 -50 -30 -58 0 -19 -65 -292 -229 -960 -78 -315
-141 -588 -141 -608 0 -52 18 -87 105 -210 200 -281 245 -336 288 -355 55 -25
79 -25 229 5 595 118 931 304 1075 593 26 51 41 72 55 72 32 0 96 38 124 74
l27 34 29 -21 c22 -16 42 -21 76 -20 89 4 117 4 177 -1 77 -7 73 -7 446 -2
186 2 324 8 336 14 13 7 25 7 38 -1 25 -13 156 -17 227 -6 68 11 80 27 77 104
-3 81 -1 97 11 90 6 -3 10 -41 10 -84 0 -104 12 -116 119 -115 42 0 87 1 101
2 14 1 57 0 95 -3 159 -10 500 -2 538 14 20 8 34 8 48 0 11 -6 83 -11 159 -12
76 -1 141 -5 145 -9 4 -3 -5 -46 -20 -94 -31 -100 -29 -146 6 -195 30 -43 63
-55 362 -140 253 -72 259 -73 300 -59 35 13 46 23 67 67 14 29 28 53 31 53 3
0 18 -40 33 -88 32 -104 52 -141 98 -175 45 -33 65 -39 364 -97 281 -54 297
-56 332 -37 12 7 97 113 187 236 213 288 210 255 45 511 -47 74 -184 290 -302
480 l-216 345 -6 324 c-8 364 -7 361 -83 396 -21 10 -39 19 -41 20 -1 1 4 87
13 191 40 502 82 1243 111 1932 l6 162 -84 0 -84 0 -17 -132z m-2217 -1520 c0
-48 -39 -81 -88 -76 -27 3 -37 -1 -51 -21 -31 -46 -32 -49 -12 -44 31 8 89
-43 102 -89 5 -22 23 -61 40 -87 16 -27 29 -51 29 -54 0 -3 -46 -5 -102 -4
-82 2 -110 -2 -135 -16 -28 -15 -33 -15 -33 -3 0 9 -13 22 -29 31 -34 17 -72
104 -75 172 -1 23 -9 50 -17 60 -41 50 -39 53 6 7 57 -57 112 -82 145 -64 23
12 80 106 80 132 0 16 2 16 30 0 27 -15 32 -16 57 -2 41 23 49 62 24 113 l-20
42 24 -30 c16 -20 25 -43 25 -67z m-526 -184 c3 -9 6 -24 6 -34 0 -10 21 -61
48 -113 l47 -94 -44 19 c-73 31 -166 43 -259 32 -45 -5 -82 -6 -82 -2 0 4 15
15 33 24 54 28 126 94 153 140 22 38 30 44 59 44 21 0 35 -6 39 -16z m-799
-83 l50 -19 38 -218 c29 -167 59 -294 127 -534 89 -313 102 -372 78 -369 -30
4 -37 -3 -40 -33 -3 -36 -1 -35 -84 -18 -45 9 -59 8 -103 -10 -49 -19 -52 -19
-85 -2 -37 18 -56 64 -56 134 0 54 -8 58 -79 48 -35 -5 -68 -13 -72 -17 -12
-12 -32 -122 -25 -139 4 -10 -3 -14 -27 -14 -100 -2 -197 -8 -230 -15 -30 -6
-37 -11 -32 -24 48 -117 77 -272 72 -381 -16 -350 -335 -602 -942 -745 -221
-52 -338 -66 -367 -42 -9 6 -53 64 -99 127 -46 63 -95 130 -110 147 -47 55
-45 76 21 343 34 135 120 483 191 775 71 291 137 540 145 552 28 44 90 73 225
108 220 55 378 78 499 72 115 -5 161 -16 210 -50 55 -37 68 -65 126 -267 31
-107 59 -198 63 -203 4 -4 38 106 76 245 76 285 81 293 166 304 l51 7 -6 56
-6 56 69 73 c39 39 78 72 88 72 10 0 41 -9 68 -19z m784 -157 c132 -37 210
-140 214 -287 2 -54 7 -81 16 -87 8 -4 18 -32 22 -62 9 -64 12 -560 3 -582 -3
-9 -17 -16 -31 -16 -13 0 -34 -11 -47 -25 -20 -21 -25 -23 -35 -11 -7 8 -37
22 -68 32 -52 16 -61 16 -114 3 -34 -9 -64 -12 -71 -7 -7 4 -51 7 -98 6 -97
-2 -126 5 -135 33 -7 21 -30 26 -41 8 -4 -8 -9 -7 -15 2 -8 12 -12 11 -22 -2
-22 -30 -33 2 -65 197 -72 431 -22 680 155 773 77 40 236 52 332 25z m681 -4
c211 -43 315 -139 376 -350 26 -89 26 -89 49 125 17 153 25 175 64 175 9 0
108 -9 221 -20 244 -24 247 -26 268 -120 13 -58 13 -73 -3 -144 -16 -77 -16
-79 3 -99 24 -23 18 -38 63 166 l32 147 36 0 c56 0 351 -49 380 -63 20 -9 35
-35 65 -110 22 -53 45 -97 52 -97 6 0 11 6 10 13 0 6 12 56 28 110 35 117 12
112 281 61 204 -39 242 -52 249 -87 3 -12 7 -161 10 -332 l6 -309 207 -331
c114 -181 256 -406 316 -500 110 -173 127 -208 111 -231 -108 -150 -212 -284
-224 -286 -15 -4 -131 17 -433 77 -148 29 -172 36 -198 61 -24 23 -27 31 -17
39 7 5 21 33 30 60 9 28 29 87 46 133 16 45 27 82 24 82 -3 0 3 7 14 16 10 8
13 12 5 8 -11 -5 -13 -3 -8 9 11 30 -207 637 -228 637 -11 0 -13 -46 -8 -255
5 -220 4 -257 -9 -272 -9 -10 -34 -61 -57 -113 -75 -170 -84 -185 -112 -188
-14 -2 -145 31 -290 72 -218 63 -268 80 -286 101 -13 15 -23 34 -23 44 0 10
16 70 34 132 19 63 42 139 50 169 8 30 53 188 100 351 47 163 86 308 86 322 0
28 -39 137 -49 137 -8 0 -57 -173 -76 -269 -8 -41 -16 -76 -19 -78 -2 -2 -8
10 -14 26 -14 39 -20 40 -14 1 4 -27 -77 -340 -100 -382 -5 -10 -20 -18 -33
-18 -25 0 -25 0 -26 108 -1 180 -4 204 -28 223 -31 26 -356 25 -416 -1 -29
-12 -43 -14 -51 -6 -6 6 -20 18 -31 26 -19 13 -23 29 -30 137 -4 66 -5 119 -1
117 8 -5 25 71 32 146 4 38 3 47 -3 30 -9 -24 -9 -23 -11 10 -2 25 -4 29 -7
12 -2 -12 -8 -20 -13 -17 -5 3 -5 17 1 32 5 14 7 28 4 31 -3 3 -5 -1 -6 -9 0
-8 -4 -6 -9 6 -5 14 -8 1 -8 -40 0 -33 -6 -86 -15 -117 -8 -31 -12 -59 -9 -62
3 -3 1 -6 -4 -6 -6 0 -20 -14 -33 -30 -18 -25 -22 -45 -24 -115 -2 -70 1 -85
13 -85 12 -1 11 -3 -3 -11 -9 -6 -15 -14 -12 -18 2 -5 -4 -16 -15 -26 -11 -10
-20 -25 -20 -33 0 -11 -8 -8 -28 11 -19 18 -47 30 -84 37 -48 9 -63 8 -106 -9
-46 -18 -53 -19 -97 -5 -58 17 -78 17 -145 3 -66 -14 -79 -40 -72 -145 5 -76
3 -81 -27 -64 -14 7 -20 27 -25 91 -7 70 -11 85 -34 108 l-27 26 2 505 2 505
23 19 c21 17 35 18 148 13 69 -3 150 -11 180 -17z m447 -662 c-3 -7 -5 -2 -5
12 0 14 2 19 5 13 2 -7 2 -19 0 -25z m-1696 -418 c26 -18 28 -18 75 -1 38 15
66 17 133 13 47 -3 89 -9 93 -15 4 -6 13 -4 24 7 14 14 28 17 72 13 30 -3 58
-11 63 -18 6 -10 11 -10 21 -1 22 18 106 33 126 23 9 -6 29 -12 43 -15 34 -7
70 -45 85 -88 l11 -33 7 58 c9 69 28 83 100 73 54 -8 61 -19 70 -106 3 -36 16
-136 28 -222 17 -122 19 -161 10 -170 -6 -6 -40 -13 -74 -15 -35 -2 -72 -4
-83 -5 -49 -4 -86 3 -104 21 -17 17 -20 18 -35 2 -14 -13 -40 -16 -149 -17
-73 0 -138 -4 -145 -8 -6 -4 -38 -2 -71 4 -38 7 -67 7 -84 1 -14 -5 -28 -7
-31 -3 -11 10 -118 9 -169 -2 -36 -8 -53 -7 -68 2 -14 9 -39 11 -80 6 -56 -6
-61 -5 -66 15 -5 21 -6 21 -32 2 -53 -38 -105 -31 -153 21 -22 24 -38 35 -38
26 0 -29 -61 -99 -105 -120 -52 -25 -64 -19 -84 41 -10 30 -8 37 22 78 l32 45
0 187 c0 102 4 191 8 197 4 7 32 15 62 19 65 8 85 -3 85 -46 l0 -29 33 35 c45
50 92 56 136 19 26 -21 35 -24 41 -14 13 22 92 47 130 42 19 -2 47 -12 61 -22z
m1469 1 c52 -36 73 -130 47 -211 -10 -33 -11 -55 -4 -80 l10 -35 9 45 c4 25
15 97 23 160 18 135 24 145 100 136 56 -6 75 -24 76 -70 0 -26 2 -28 9 -11 11
27 49 61 83 74 36 14 84 14 92 1 4 -6 14 -8 24 -5 9 3 66 7 128 10 84 4 113 2
121 -8 7 -8 12 -80 14 -185 l3 -172 25 0 c37 0 50 -18 50 -70 0 -80 -2 -80
-185 -78 -157 3 -160 3 -163 26 -4 27 -3 27 -48 -3 -33 -23 -44 -24 -142 -23
-59 1 -112 -1 -118 -5 -7 -4 -32 -3 -58 2 -29 5 -60 4 -86 -2 -31 -9 -46 -8
-61 1 -14 9 -39 11 -78 6 -50 -5 -60 -4 -68 11 -10 16 -12 16 -37 -1 -34 -21
-152 -23 -171 -2 -9 9 -15 82 -19 245 -7 231 -7 232 15 243 37 20 129 17 176
-6 23 -12 44 -18 45 -13 2 4 23 17 48 27 51 22 102 19 140 -7z"/>
<path d="M4100 16755 c0 -5 -9 -62 -20 -125 -28 -160 -29 -154 23 -146 23 4
46 11 50 15 12 12 -14 180 -35 226 -9 22 -18 36 -18 30z"/>
<path d="M3136 16628 c-54 -31 -96 -101 -96 -160 0 -24 31 -23 78 1 46 23 67
46 87 94 12 30 13 41 3 57 -14 22 -43 25 -72 8z"/>
<path d="M3657 16433 c-2 -5 -10 -25 -16 -45 -7 -21 -17 -38 -22 -38 -18 0 -9
-31 21 -72 17 -22 30 -47 30 -55 0 -7 4 -13 8 -13 8 0 67 201 60 204 -2 0 -13
7 -25 14 -26 14 -50 16 -56 5z"/>
<path d="M3138 16019 c-2 -5 -23 -12 -47 -13 -27 -2 -49 -10 -56 -20 -7 -9
-17 -16 -22 -16 -14 0 -30 -43 -38 -100 -4 -25 -14 -69 -22 -98 -20 -73 -9
-83 59 -51 61 28 102 80 124 154 16 56 18 192 2 144z m-1 -41 c-3 -8 -6 -5 -6
6 -1 11 2 17 5 13 3 -3 4 -12 1 -19z"/>
<path d="M4876 16948 c-26 -91 -11 -435 21 -505 l18 -38 3 55 c1 30 -1 97 -6
149 -6 67 -5 100 4 116 7 13 9 26 6 30 -4 3 1 3 11 -1 19 -7 19 -10 17 100 -1
44 -6 88 -11 98 -14 26 -55 23 -63 -4z"/>
<path d="M6490 16811 c0 -63 13 -77 76 -85 31 -3 59 -5 61 -2 3 2 6 16 7 29 2
20 -2 27 -22 32 -25 6 -61 34 -45 36 16 1 -32 18 -54 18 -19 1 -23 -4 -23 -28z"/>
<path d="M7383 16809 c-9 -12 -21 -40 -28 -69 -1 -3 -5 -12 -9 -21 -8 -18 38
-144 61 -169 12 -13 13 2 7 105 -8 142 -15 173 -31 154z"/>
<path d="M5686 16772 c-5 -9 21 -309 29 -329 8 -23 51 -15 63 12 23 51 10 296
-14 272 -6 -6 -17 2 -54 35 -11 10 -21 14 -24 10z"/>
<path d="M6130 16685 c0 -5 5 -17 10 -25 5 -8 10 -10 10 -5 0 6 -5 17 -10 25
-5 8 -10 11 -10 5z"/>
<path d="M6556 16491 c-11 -16 5 -89 23 -104 9 -8 33 -17 54 -19 34 -4 37 -2
37 20 0 14 -5 42 -12 63 -8 29 -17 39 -32 39 -12 0 -31 3 -42 6 -12 3 -25 1
-28 -5z"/>
<path d="M6731 16426 c-17 -67 -15 -71 34 -82 33 -7 45 -7 42 0 -35 86 -53
126 -58 126 -4 0 -12 -20 -18 -44z"/>
<path d="M6221 16374 c0 -11 3 -14 6 -6 3 7 2 16 -1 19 -3 4 -6 -2 -5 -13z"/>
<path d="M4175 16020 c-55 -22 -86 -108 -87 -242 0 -140 48 -217 119 -192 39
13 64 65 74 147 18 161 -38 314 -106 287z m35 -131 c12 -21 8 -148 -5 -181
-10 -25 -32 -22 -41 5 -11 33 -5 168 7 184 16 18 27 16 39 -8z"/>
<path d="M4354 16018 c-20 -9 -22 -17 -23 -161 0 -84 -5 -179 -10 -212 -5 -33
-8 -60 -7 -61 0 -1 17 1 37 3 42 6 49 23 49 119 0 62 16 72 25 17 11 -75 25
-146 28 -150 3 -3 67 16 75 22 2 2 -9 42 -23 90 -26 83 -26 90 -14 170 11 75
10 86 -7 121 -17 34 -23 39 -54 39 -19 0 -39 3 -45 6 -5 4 -20 2 -31 -3z m75
-82 c18 -22 2 -116 -20 -116 -5 0 -9 29 -9 65 0 65 7 77 29 51z"/>
<path d="M4585 16016 l-30 -9 -2 -146 c-1 -80 -5 -174 -9 -208 l-7 -63 43 0
43 0 -5 89 c-9 146 14 132 45 -29 11 -55 16 -65 33 -62 44 7 43 4 43 195 0
102 3 197 7 211 6 25 4 26 -32 24 l-39 -1 3 -99 c2 -54 -1 -98 -6 -98 -4 0
-19 46 -33 103 l-24 102 -30 -9z"/>
<path d="M5005 16022 c-6 -4 -9 -85 -7 -219 4 -200 5 -211 23 -216 28 -7 90 2
107 15 40 33 67 143 63 253 -4 104 -43 171 -93 160 -17 -4 -28 -2 -28 4 0 12
-50 15 -65 3z m105 -111 c24 -46 -1 -241 -31 -241 -5 0 -9 59 -9 130 0 108 3
130 15 130 8 0 19 -9 25 -19z"/>
<path d="M3968 15875 c4 -162 -7 -233 -43 -281 -25 -33 -25 -74 1 -74 25 0 92
74 103 115 6 22 11 118 11 213 l0 172 -37 0 -38 0 3 -145z"/>
<path d="M4821 15933 c-18 -129 -27 -180 -45 -262 -18 -82 -15 -91 37 -91 20
0 27 5 27 20 0 28 50 28 57 0 4 -15 11 -18 37 -13 17 3 32 7 34 8 1 1 -4 37
-12 81 -8 43 -19 120 -26 169 -25 197 -17 175 -60 175 l-37 0 -12 -87z m54
-124 c3 -30 7 -71 9 -91 3 -33 0 -38 -17 -38 -18 0 -19 5 -13 53 3 28 6 72 6
96 0 59 9 47 15 -20z"/>
<path d="M5280 16013 c-2 -26 -31 -206 -50 -302 -19 -95 -20 -115 -9 -122 25
-16 57 -10 64 11 8 26 51 27 57 2 4 -15 12 -18 38 -14 l32 5 -6 51 c-4 28 -11
76 -16 106 -5 30 -15 103 -21 163 l-13 107 -38 0 c-21 0 -38 -3 -38 -7z m49
-290 c1 -32 -3 -43 -14 -43 -14 0 -20 18 -16 50 1 8 3 40 5 70 3 30 6 60 7 65
3 15 17 -94 18 -142z"/>
<path d="M5600 16020 l-35 -5 0 -210 c0 -128 4 -213 10 -217 6 -4 30 -8 55 -8
45 0 82 17 107 50 17 22 27 98 15 113 -10 12 -12 18 -12 35 0 5 -9 19 -20 32
l-20 23 20 34 c44 75 8 157 -64 144 -5 -1 -12 2 -15 6 -3 5 -22 6 -41 3z m69
-84 c10 -11 9 -21 -3 -45 -26 -49 -36 -47 -36 8 0 53 15 67 39 37z m1 -175
c15 -29 12 -77 -5 -91 -9 -7 -17 -11 -19 -9 -7 8 -15 107 -9 113 11 11 22 6
33 -13z"/>
<path d="M5824 16017 c-20 -10 -22 -18 -23 -161 0 -83 -5 -178 -10 -211 -5
-33 -8 -60 -7 -61 0 -1 17 1 37 3 42 6 49 23 49 119 0 29 5 56 10 59 6 3 10
-5 10 -19 0 -24 28 -167 34 -173 3 -3 67 17 74 23 2 1 -8 40 -23 86 -22 67
-26 92 -20 133 14 93 11 149 -8 179 -16 24 -24 28 -53 23 -19 -3 -34 -2 -34 4
0 11 -8 10 -36 -4z m76 -87 c11 -20 8 -68 -5 -89 -15 -26 -25 -7 -25 49 0 61
11 76 30 40z"/>
<path d="M6338 16022 c-42 -5 -88 -56 -88 -97 0 -36 32 -120 57 -147 25 -28
10 -83 -28 -98 -29 -12 -30 -15 -23 -54 3 -23 8 -43 10 -45 11 -12 86 24 110
51 24 30 26 38 21 93 -5 48 -14 73 -42 115 -43 63 -42 89 3 110 27 13 31 19
26 40 -7 32 -13 36 -46 32z"/>
<path d="M6086 16003 c-2 -10 -7 -45 -11 -78 -3 -33 -10 -80 -15 -105 -45
-226 -44 -221 -29 -231 25 -16 57 -10 64 11 8 26 51 27 57 2 4 -15 12 -18 37
-14 37 5 39 19 16 125 -8 37 -20 121 -27 187 l-12 120 -37 0 c-27 0 -39 -5
-43 -17z m53 -263 c4 0 6 -13 3 -30 -2 -18 -10 -30 -19 -30 -12 0 -14 14 -9
83 7 115 9 122 13 45 2 -38 7 -68 12 -68z"/>
<path d="M6445 15801 l1 -216 34 3 c19 1 36 5 38 7 7 7 4 291 -4 363 l-6 62
-32 -2 -31 -2 0 -215z"/>
<path d="M6579 16018 c0 -2 -2 -99 -4 -215 -4 -195 -2 -213 13 -213 9 -1 43
-3 75 -7 l57 -5 0 41 c0 40 -1 41 -35 41 -41 0 -37 -25 -43 258 l-2 102 -30 0
c-16 0 -30 -1 -31 -2z"/>
<path d="M6366 15902 c-2 -4 5 -23 17 -42 l22 -35 3 28 c2 16 1 35 -2 43 -6
15 -32 19 -40 6z"/>
<path d="M6236 15760 c7 -63 8 -64 29 -57 21 9 19 26 -10 72 l-26 40 7 -55z"/>
<path d="M9636 19038 c-3 -7 -18 -112 -35 -233 -17 -121 -58 -407 -91 -635
-33 -228 -83 -568 -110 -755 -27 -187 -63 -434 -80 -550 -62 -427 -111 -766
-140 -970 -16 -115 -34 -236 -40 -268 -6 -31 -8 -62 -5 -67 7 -12 35 12 35 30
0 6 5 8 10 5 6 -3 10 1 10 10 0 9 4 14 9 11 5 -3 14 1 21 9 7 8 16 12 21 10 7
-5 50 44 104 119 64 90 89 118 93 107 4 -12 -83 -194 -103 -215 -6 -6 -21 -31
-34 -56 -52 -103 -90 -171 -106 -186 -9 -9 -14 -23 -11 -30 3 -8 2 -14 -3 -14
-5 0 -12 -11 -15 -25 -4 -16 -11 -23 -18 -19 -7 5 -9 0 -6 -13 3 -12 2 -27 -3
-34 -8 -12 -11 -11 -20 1 -8 12 -9 9 -5 -12 4 -16 2 -28 -4 -28 -5 0 -10 -7
-10 -16 0 -8 -3 -13 -7 -11 -5 3 -9 -16 -9 -41 -2 -42 -1 -44 8 -19 5 15 14
24 20 21 6 -4 8 4 6 19 -4 35 21 77 46 76 12 0 15 -3 9 -6 -7 -2 -13 -13 -13
-24 0 -16 5 -14 30 14 17 19 30 40 30 46 0 6 11 18 25 27 14 9 25 23 25 30 0
8 5 14 11 14 11 0 48 39 49 52 0 4 20 28 45 54 25 25 45 50 45 55 0 5 9 18 19
28 11 11 22 35 25 53 6 32 41 448 71 823 39 497 84 1388 99 1955 3 113 9 310
12 438 6 204 3 264 -10 220z m-427 -3735 c-1 -38 -1 -38 -9 -9 -8 27 -6 46 6
46 2 0 4 -17 3 -37z"/>
<path d="M10373 18865 c0 -27 2 -38 4 -22 2 15 2 37 0 50 -2 12 -4 0 -4 -28z"/>
<path d="M10379 18785 c-7 -24 53 -1022 141 -2340 16 -242 32 -491 35 -553 4
-62 11 -115 16 -118 5 -3 22 9 39 26 28 28 30 35 25 83 -3 29 -12 131 -20 227
-8 96 -20 227 -25 290 -6 63 -30 351 -55 640 -46 535 -55 649 -101 1170 -14
162 -31 363 -38 445 -6 83 -14 141 -17 130z"/>
<path d="M4351 18079 c-11 -12 -37 -54 -57 -93 -55 -106 -105 -174 -175 -241
-35 -33 -56 -51 -47 -40 29 36 48 84 48 118 0 19 10 56 21 82 21 47 21 49 3
62 -48 35 -170 52 -234 34 -20 -6 -30 -2 -51 22 -34 41 -59 32 -59 -21 0 -36
-2 -39 -25 -34 -23 4 -25 1 -25 -29 0 -19 -16 -65 -35 -104 -19 -38 -38 -88
-41 -111 -6 -37 -4 -42 17 -47 13 -4 39 -7 57 -7 21 0 32 -5 32 -15 0 -8 11
-22 25 -31 26 -17 29 -17 148 4 43 8 47 7 47 -11 0 -11 7 -29 17 -39 13 -14
13 -18 2 -18 -8 0 -23 7 -33 15 -25 19 -67 20 -60 2 3 -8 -5 -19 -18 -25 -22
-11 -22 -12 7 -11 53 2 55 1 56 -43 1 -24 3 -35 6 -25 2 9 7 17 10 17 3 0 12
-8 20 -17 13 -17 14 -16 12 7 -2 39 0 43 16 30 9 -8 12 -22 9 -43 -5 -28 -4
-30 8 -15 13 15 15 15 25 0 10 -15 12 -13 12 11 1 25 14 33 45 28 5 -1 18 7
30 17 39 36 63 37 103 1 43 -37 130 -80 149 -72 7 3 16 14 20 26 4 12 12 27
19 34 13 13 13 51 0 93 -11 35 -55 90 -71 90 -8 0 -41 -13 -74 -30 -33 -16
-65 -30 -72 -29 -7 0 3 7 22 16 19 8 39 20 45 27 5 7 31 21 57 30 26 10 61 30
78 46 33 31 40 74 14 84 -14 5 -13 9 4 33 51 74 47 139 -8 131 -29 -4 -29 -4
-23 39 9 68 -33 98 -76 52z m-236 -559 c3 -5 -3 -10 -14 -10 -12 0 -21 5 -21
10 0 6 6 10 14 10 8 0 18 -4 21 -10z"/>
<path d="M6000 17968 c-32 -53 -62 -140 -64 -184 l-1 -41 -79 -7 c-44 -3 -84
-10 -89 -15 -14 -14 48 -135 84 -165 17 -14 37 -26 45 -26 10 0 14 -13 14 -45
0 -65 23 -113 79 -165 26 -25 50 -52 54 -60 5 -13 8 -13 20 3 19 23 29 22 46
-5 l14 -22 17 21 c9 12 32 28 51 36 46 19 97 74 110 117 11 38 8 122 -5 152
-6 13 0 20 27 31 43 18 70 56 91 126 21 72 21 78 -11 84 -38 8 -163 -11 -190
-29 -22 -14 -23 -13 -23 22 0 51 -39 114 -101 163 -28 23 -56 41 -60 41 -5 0
-18 -15 -29 -32z m194 -392 c39 -16 106 -73 106 -90 -1 -16 -37 -40 -93 -61
-34 -13 -63 -16 -106 -12 -60 5 -171 48 -171 65 0 12 98 88 130 101 36 14 96
13 134 -3z"/>
<path d="M6106 17548 c-30 -42 -14 -118 23 -118 41 0 64 73 37 115 -20 31 -40
32 -60 3z"/>
<path d="M3566 17831 c-4 -6 -3 -11 3 -11 6 0 8 -7 5 -15 -4 -8 -10 -12 -15
-9 -5 3 -9 1 -9 -5 0 -23 21 -20 30 5 11 28 -1 56 -14 35z"/>
<path d="M2820 17270 c0 -5 5 -10 10 -10 6 0 10 5 10 10 0 6 -4 10 -10 10 -5
0 -10 -4 -10 -10z"/>
<path d="M1265 16131 c3 -18 5 -43 5 -55 0 -17 2 -18 10 -6 7 11 10 7 11 -20
2 -28 3 -30 6 -9 2 14 -5 48 -17 75 -18 42 -20 44 -15 15z"/>
<path d="M1332 16120 c0 -19 2 -27 5 -17 2 9 2 25 0 35 -3 9 -5 1 -5 -18z"/>
<path d="M1311 16014 c0 -11 3 -14 6 -6 3 7 2 16 -1 19 -3 4 -6 -2 -5 -13z"/>
<path d="M10621 15478 c-26 -35 -31 -51 -31 -97 0 -75 10 -88 40 -56 12 13 27
22 31 19 5 -3 9 33 9 80 0 47 -4 87 -9 90 -5 4 -23 -13 -40 -36z"/>
<path d="M9413 15418 c-15 -29 -33 -62 -40 -73 -7 -11 -16 -27 -20 -35 -4 -8
-29 -50 -55 -93 -52 -85 -53 -87 -38 -87 6 0 10 7 10 16 0 9 5 12 12 8 7 -4 8
-3 4 4 -4 7 -2 12 3 12 6 0 11 7 11 15 0 8 7 15 15 15 9 0 12 6 8 17 -4 11 -3
14 5 9 6 -4 19 5 29 21 10 15 23 34 30 41 7 7 13 18 13 23 0 6 4 8 9 5 5 -3
13 7 19 22 13 32 26 132 18 132 -3 0 -18 -24 -33 -52z"/>
<path d="M10636 15267 c-32 -48 -37 -62 -32 -94 3 -21 10 -117 16 -213 13
-222 19 -270 33 -270 7 0 27 13 46 29 l34 28 -16 174 c-9 96 -20 217 -23 269
-10 140 -13 145 -58 77z"/>
<path d="M9225 15100 c-3 -5 -1 -10 4 -10 6 0 11 5 11 10 0 6 -2 10 -4 10 -3
0 -8 -4 -11 -10z"/>
<path d="M10718 14640 c-9 -14 -28 -38 -43 -55 -26 -29 -27 -32 -20 -125 3
-52 8 -114 12 -137 l5 -43 45 37 44 37 -7 97 c-3 53 -9 123 -13 155 -6 58 -6
58 -23 34z"/>
<path d="M1845 14219 c-229 -33 -481 -158 -645 -320 -230 -228 -340 -495 -340
-824 0 -201 46 -384 141 -564 49 -92 145 -231 171 -247 7 -5 -67 -11 -178 -14
-186 -5 -191 -6 -231 -32 -24 -16 -49 -44 -62 -70 -19 -41 -21 -60 -21 -259 0
-186 3 -219 19 -254 22 -50 69 -91 119 -105 54 -14 2393 -14 2447 1 51 14 110
73 124 124 6 23 11 125 11 241 0 201 0 202 -28 255 -20 39 -38 58 -71 76 -41
22 -55 23 -223 23 l-178 0 48 59 c109 136 197 317 243 501 21 82 24 119 24
270 0 187 -13 268 -61 397 -65 172 -129 271 -267 411 -174 176 -415 297 -661
331 -90 13 -294 12 -381 0z m20 -50 c5 -6 5 -9 -1 -9 -12 0 -39 -79 -30 -88 3
-3 6 1 6 9 0 8 15 20 33 27 50 18 57 16 44 -13 -12 -24 -52 -45 -88 -45 -10 0
-64 -15 -119 -34 -55 -19 -100 -31 -100 -27 0 3 -4 1 -8 -5 -4 -6 -29 -23 -57
-37 -43 -21 -75 -43 -195 -131 -8 -6 -6 -1 4 12 20 23 9 31 -13 10 -11 -11
-11 -9 -1 10 6 13 9 26 6 30 -3 3 -6 0 -6 -6 0 -7 -5 -12 -11 -12 -6 0 -8 7
-5 16 4 12 2 15 -9 10 -12 -4 -13 -2 -2 17 6 12 16 25 20 28 5 3 8 10 6 15 -1
5 8 13 20 19 11 5 21 13 21 18 0 4 5 5 12 1 7 -4 8 -3 4 4 -8 13 47 45 59 34
5 -4 5 -2 2 4 -9 15 148 98 165 88 7 -4 8 -3 4 4 -6 10 16 18 27 10 2 -2 11 3
20 10 22 19 138 50 162 45 11 -3 24 -9 30 -14z m115 -3 c0 -3 -4 -8 -10 -11
-5 -3 -10 -1 -10 4 0 6 5 11 10 11 6 0 10 -2 10 -4z m29 -49 c13 -16 5 -28
-15 -20 -8 3 -14 -1 -14 -10 0 -19 -38 -33 -52 -19 -8 8 -4 9 11 5 16 -4 20
-2 15 10 -6 17 14 46 32 47 6 0 17 -6 23 -13z m-699 -201 c0 -2 -8 -10 -17
-17 -16 -13 -17 -12 -4 4 13 16 21 21 21 13z m5 -66 c3 -6 -1 -7 -9 -4 -18 7
-21 14 -7 14 6 0 13 -4 16 -10z m860 -74 c181 -32 296 -81 420 -178 84 -66
253 -222 254 -234 1 -6 14 -17 30 -24 16 -6 38 -22 50 -36 11 -13 28 -24 36
-24 8 0 15 -4 15 -10 0 -5 -4 -10 -10 -10 -16 0 -12 -30 5 -36 15 -6 22 -43
30 -157 4 -62 3 -68 -13 -62 -9 4 -27 10 -39 12 -18 4 -21 2 -16 -16 3 -12 1
-21 -4 -21 -22 0 -73 32 -73 46 0 12 -26 19 -52 15 -5 0 -8 3 -8 8 0 11 25 21
50 21 25 0 32 13 21 42 -9 21 -10 21 -11 3 -1 -19 -1 -19 -11 -1 -6 10 -7 21
-3 25 16 11 13 43 -3 37 -10 -4 -13 -2 -10 8 11 29 -19 39 -85 30 -52 -8 -62
-12 -65 -31 -4 -29 27 -32 34 -3 6 24 19 26 27 4 3 -8 9 -13 13 -11 5 3 8 -8
9 -24 1 -16 -3 -29 -9 -29 -6 0 -7 -3 -4 -7 10 -9 -43 -34 -56 -26 -6 3 -7 1
-3 -6 4 -6 2 -18 -4 -26 -8 -10 -9 -15 -2 -15 6 0 17 8 24 18 16 22 48 36 48
21 0 -14 -41 -48 -57 -49 -7 0 -13 -4 -13 -10 0 -5 -7 -10 -15 -10 -8 0 -15
-5 -15 -11 0 -5 -4 -8 -9 -4 -6 3 -9 -4 -8 -15 1 -12 5 -16 10 -11 5 5 15 7
23 4 10 -4 10 -9 2 -23 -9 -15 -17 -16 -37 -8 -14 5 -28 14 -32 19 -3 6 -16 1
-30 -10 l-24 -21 31 6 c27 5 37 1 63 -26 17 -18 32 -36 32 -39 12 -57 -4 -69
-46 -33 -17 14 -23 23 -15 20 8 -3 24 -2 35 3 15 6 9 8 -22 8 -27 1 -43 -4
-45 -13 -2 -10 -9 -11 -28 -4 -24 9 -24 10 -7 23 17 12 17 14 -5 29 -13 9 -17
16 -9 16 8 0 12 2 9 5 -11 11 -37 -7 -31 -22 5 -14 0 -15 -37 -9 -25 4 -41 4
-38 1 4 -4 10 -7 15 -7 4 0 16 -4 27 -10 13 -7 15 -13 8 -20 -8 -8 -19 -6 -36
6 -32 20 -35 5 -3 -17 17 -12 18 -16 6 -16 -12 -1 -15 -9 -13 -31 2 -16 0 -30
-5 -30 -4 0 -8 -7 -8 -15 0 -8 4 -15 9 -15 5 0 6 -5 3 -10 -4 -6 -11 -7 -17
-4 -7 4 -8 2 -4 -5 4 -6 13 -8 19 -4 8 4 8 2 -1 -9 -10 -13 -10 -17 3 -22 9
-3 13 -2 10 4 -4 6 5 10 20 10 14 0 24 4 20 9 -3 5 4 12 15 16 11 3 20 12 20
20 0 13 24 28 46 30 6 0 18 6 26 12 12 11 14 9 12 -10 -1 -12 -3 -26 -3 -31
-1 -4 -8 -5 -16 -2 -9 3 -18 -1 -21 -8 -5 -13 -40 -30 -57 -27 -5 1 -6 -3 -2
-9 3 -5 13 -10 21 -10 8 0 14 -10 14 -24 0 -13 2 -33 5 -43 3 -10 -1 -4 -10
14 -10 23 -20 31 -31 26 -13 -5 -13 -7 -2 -14 8 -6 1 -7 -19 -4 -18 3 -45 7
-60 9 -16 3 -39 -2 -53 -9 -14 -8 -37 -14 -52 -15 -21 0 -25 -4 -21 -20 3 -11
10 -23 16 -27 5 -3 7 -1 3 5 -10 17 9 23 30 7 19 -13 19 -14 1 -45 -17 -28
-17 -33 -4 -43 8 -7 18 -22 22 -34 5 -18 3 -22 -9 -17 -9 3 -16 10 -16 15 0 5
-5 9 -11 9 -5 0 -7 -6 -3 -12 4 -7 -4 -3 -17 10 -18 17 -21 25 -12 30 10 6 10
12 -2 28 -14 17 -15 12 -12 -57 2 -57 7 -81 21 -94 17 -18 19 -17 40 10 l23
29 18 -22 c22 -25 39 -19 25 9 -6 10 -7 19 -3 19 5 0 14 -14 21 -32 9 -26 9
-37 -3 -61 -18 -36 -18 -40 -4 -31 8 4 9 0 4 -15 -5 -15 -2 -21 10 -21 9 0 13
-5 10 -11 -4 -6 -38 -9 -89 -7 l-81 3 -77 155 c-43 85 -78 164 -78 175 0 19 0
19 -20 -1 -12 -11 -21 -29 -20 -40 0 -10 2 -44 3 -74 2 -30 -2 -67 -7 -82 -7
-18 -7 -40 0 -65 12 -46 7 -73 -12 -73 -9 0 -15 12 -16 33 l-1 32 -4 -32 -4
-33 -267 0 -267 0 -40 27 c-88 58 -229 207 -220 231 2 7 0 10 -5 7 -6 -3 -10
-2 -10 4 0 5 4 12 9 15 5 3 7 22 4 41 -3 21 0 35 6 35 6 0 11 7 11 15 0 8 5
14 11 12 6 -1 14 5 16 13 4 12 3 12 -5 2 -5 -8 -12 -13 -16 -13 -20 3 -26 -1
-26 -14 0 -8 -7 -15 -15 -15 -17 0 -20 16 -5 25 6 3 10 22 10 41 0 42 17 64
50 64 6 0 10 11 10 25 0 19 5 25 23 25 17 0 19 2 7 10 -8 5 -11 12 -7 16 4 4
2 13 -4 20 -7 9 -7 18 0 31 6 10 11 12 11 6 0 -7 5 -13 11 -13 5 0 7 5 4 10
-8 13 1 13 24 -2 10 -6 27 -8 37 -4 18 7 18 8 0 22 -23 16 -14 19 15 4 16 -9
13 1 -16 55 -19 37 -35 76 -35 88 0 13 10 -2 24 -35 38 -93 83 -154 136 -187
44 -27 50 -28 62 -14 7 9 8 14 2 10 -17 -10 -29 11 -43 76 -13 62 -10 77 12
59 7 -6 47 -16 88 -22 41 -6 88 -15 104 -20 28 -9 29 -8 11 5 -11 8 -14 15 -8
15 19 0 14 13 -15 49 -27 32 -44 81 -58 169 -4 23 -11 42 -16 42 -6 0 -7 -4
-4 -10 3 -5 2 -10 -4 -10 -5 0 -9 9 -8 20 1 13 18 27 59 44 32 14 58 30 58 36
0 6 5 8 10 5 6 -4 24 9 40 27 17 18 42 44 55 58 14 14 25 33 25 43 0 9 8 17
18 17 10 0 4 7 -15 16 -18 9 -33 21 -33 26 0 5 -7 3 -15 -6 -17 -17 -20 -30
-5 -21 6 3 10 1 10 -5 0 -7 -8 -9 -20 -5 -15 5 -23 -2 -39 -34 -19 -36 -54
-61 -68 -47 -4 3 1 6 10 6 23 0 47 39 47 78 0 39 -40 88 -63 79 -9 -3 -18 -1
-20 6 -3 9 -8 9 -18 0 -7 -7 -21 -13 -32 -13 -10 0 -16 -4 -12 -9 3 -5 1 -12
-5 -16 -5 -3 -10 -16 -11 -28 -1 -20 -2 -20 -8 3 -7 25 -8 25 -15 3 -4 -12 -4
-33 0 -47 8 -33 -14 -59 -34 -40 -7 8 -11 17 -8 22 2 4 1 14 -5 22 -7 13 -9
12 -9 -2 0 -10 -7 -18 -15 -18 -8 0 -15 5 -15 11 0 6 -7 9 -15 5 -19 -7 -19
-1 1 28 9 15 11 27 5 30 -10 6 -16 -1 -38 -42 -11 -21 -10 -25 7 -29 11 -3 20
-10 20 -15 0 -5 -4 -6 -10 -3 -6 4 -10 -5 -10 -19 0 -14 4 -26 10 -26 5 0 7
-7 4 -15 -4 -8 -2 -15 4 -15 5 0 9 -15 8 -34 l-1 -35 -29 30 c-43 44 -96 36
-87 -14 1 -10 -4 -24 -13 -30 -8 -7 -17 -28 -19 -47 -3 -26 -4 -22 -4 15 -1
28 2 61 6 74 7 25 -9 124 -21 137 -4 3 -1 13 7 21 8 8 15 25 15 39 0 14 7 27
15 30 8 4 15 16 15 29 0 12 9 34 20 48 11 14 20 29 20 35 0 16 82 86 140 119
154 87 365 111 605 69z m-454 -306 c27 -15 25 -64 -3 -84 -24 -17 -51 -8 -62
21 -6 14 -5 16 5 6 22 -22 49 -16 49 11 0 34 -17 42 -42 19 -12 -10 -19 -13
-16 -8 3 6 8 18 11 28 7 19 29 22 58 7z m54 -57 c-6 -37 -27 -63 -49 -63 -6 0
-1 8 11 18 19 14 28 36 32 75 1 4 4 7 7 7 3 0 3 -17 -1 -37z m-124 -46 c-7 -7
-14 -8 -21 -1 -6 6 -2 10 12 11 16 2 18 -1 9 -10z m-121 -7 c0 -5 -5 -10 -11
-10 -5 0 -7 5 -4 10 3 6 8 10 11 10 2 0 4 -4 4 -10z m320 6 c0 -3 -4 -8 -10
-11 -5 -3 -10 -1 -10 4 0 6 5 11 10 11 6 0 10 -2 10 -4z m-290 -32 c0 -8 -5
-12 -10 -9 -6 4 -8 11 -5 16 9 14 15 11 15 -7z m-30 -106 c0 -19 -2 -20 -10
-8 -13 19 -13 30 0 30 6 0 10 -10 10 -22z m30 8 c0 -3 -4 -8 -10 -11 -5 -3
-10 -1 -10 4 0 6 5 11 10 11 6 0 10 -2 10 -4z m-75 -46 c3 -6 -1 -7 -9 -4 -18
7 -21 14 -7 14 6 0 13 -4 16 -10z m79 -6 c10 -26 -5 -39 -21 -19 -7 11 -13 22
-13 27 0 15 28 8 34 -8z m-114 -24 c0 -5 -2 -10 -4 -10 -3 0 -8 5 -11 10 -3 6
-1 10 4 10 6 0 11 -4 11 -10z m-66 -25 c-4 -8 -8 -15 -10 -15 -2 0 -4 7 -4 15
0 8 4 15 10 15 5 0 7 -7 4 -15z m1402 -84 c-6 -9 -46 -22 -46 -15 0 3 10 9 23
14 29 11 29 11 23 1z m-41 -61 c-3 -5 2 -10 12 -11 11 0 13 -3 5 -6 -18 -7
-44 5 -37 17 3 5 11 10 16 10 6 0 7 -4 4 -10z m120 -6 c19 -16 19 -16 -5 -9
-31 9 -50 25 -29 25 7 0 23 -8 34 -16z m85 -39 c0 -17 -5 -25 -17 -25 -16 0
-16 2 -3 10 13 9 12 12 -4 25 -19 15 -19 15 2 15 17 0 22 -6 22 -25z m-175
-35 c-3 -5 -12 -7 -20 -3 -21 7 -19 13 6 13 11 0 18 -4 14 -10z m161 -54 c3
-8 -2 -29 -12 -48 -15 -29 -18 -31 -24 -13 -4 12 -1 25 7 33 12 12 11 16 -4
28 -17 12 -17 13 5 14 12 0 25 -6 28 -14z m-365 -36 c31 -17 21 -30 -11 -14
-16 9 -30 17 -30 20 0 7 21 4 41 -6z m-51 -10 c0 -5 -2 -10 -4 -10 -3 0 -8 5
-11 10 -3 6 -1 10 4 10 6 0 11 -4 11 -10z m140 -18 c-8 -3 -18 -10 -22 -15 -3
-6 -5 1 -5 15 2 23 5 25 22 15 16 -8 17 -11 5 -15z m-160 -27 c0 -2 -7 -5 -15
-9 -9 -3 -15 0 -15 9 0 9 6 12 15 9 8 -4 15 -7 15 -9z m207 -42 c-3 -3 -11 -2
-17 2 -9 6 -9 10 1 16 14 8 27 -7 16 -18z m-42 -23 c-3 -5 -12 -10 -20 -10 -7
0 -17 -9 -20 -21 -6 -19 -8 -19 -24 -5 -10 9 -24 16 -32 17 -21 0 52 26 79 28
13 0 21 -3 17 -9z m185 -60 c0 -5 -2 -10 -4 -10 -3 0 -8 5 -11 10 -3 6 -1 10
4 10 6 0 11 -4 11 -10z m-1640 -10 c0 -5 -2 -10 -4 -10 -3 0 -8 5 -11 10 -3 6
-1 10 4 10 6 0 11 -4 11 -10z m1471 -33 c12 -22 12 -22 -10 -3 -11 11 -21 23
-21 28 0 14 19 -1 31 -25z m-161 -12 c0 -5 -5 -3 -10 5 -5 8 -10 20 -10 25 0
6 5 3 10 -5 5 -8 10 -19 10 -25z m-1294 -3 c18 -12 23 -39 8 -39 -8 0 -14 8
-14 18 0 9 -6 20 -12 22 -7 3 -8 6 -3 6 6 0 15 -3 21 -7z m1434 -28 c0 -8 -4
-12 -10 -9 -5 3 -10 10 -10 16 0 5 5 9 10 9 6 0 10 -7 10 -16z m125 6 c3 -5 1
-10 -4 -10 -6 0 -11 5 -11 10 0 6 2 10 4 10 3 0 8 -4 11 -10z m-359 -50 c1
-16 -3 -27 -7 -24 -5 3 -6 -2 -3 -10 9 -23 -9 -20 -24 4 -10 16 -10 20 2 20 7
0 16 9 19 20 7 28 12 25 13 -10z m195 -21 c-12 -11 -21 -16 -21 -12 0 4 -7 -2
-15 -13 -13 -16 -14 -16 -9 -1 3 9 1 17 -5 17 -24 0 -9 16 16 18 15 1 32 7 38
14 7 8 6 9 -2 4 -14 -8 -18 6 -6 18 4 3 11 -1 16 -10 6 -11 3 -21 -12 -35z
m-69 -41 c-9 -9 -18 -6 -37 12 -14 13 -25 18 -25 12 0 -7 5 -12 10 -12 6 0 10
-5 10 -12 0 -9 -3 -9 -11 -1 -6 6 -18 9 -26 6 -13 -5 -13 -3 -2 16 16 24 59
29 59 7 0 -8 4 -17 9 -20 4 -3 6 7 4 22 -3 27 -3 27 8 4 9 -17 10 -25 1 -34z
m158 -31 c0 -5 -13 5 -30 23 -16 18 -30 35 -30 38 0 3 14 -7 30 -23 17 -16 30
-33 30 -38z m-1055 -332 c0 -13 -8 -21 -22 -23 -19 -3 -23 1 -23 23 0 22 4 26
23 23 14 -2 22 -10 22 -23z m293 -17 c3 -35 4 -36 27 -26 51 23 85 -27 85
-123 0 -35 -3 -39 -25 -39 -22 0 -25 4 -25 38 0 61 -10 83 -34 80 -18 -3 -21
-11 -24 -60 -3 -54 -5 -58 -27 -58 l-25 0 0 116 c0 114 0 115 23 112 18 -2 23
-10 25 -40z m1083 -55 c0 -54 2 -106 4 -115 2 -13 -3 -18 -21 -18 -24 0 -24 0
-24 115 0 108 1 115 20 115 19 0 20 -7 21 -97z m-1973 75 c5 -7 22 -42 37 -78
15 -36 34 -80 42 -97 13 -33 13 -33 -16 -33 -20 0 -30 6 -34 20 -4 16 -14 20
-51 20 -35 0 -48 -4 -56 -20 -12 -22 -66 -29 -57 -7 78 193 105 231 135 195z
m157 -48 c4 -6 15 -6 30 0 22 8 25 7 25 -13 0 -13 -9 -26 -22 -32 -19 -8 -24
-19 -26 -62 -3 -49 -5 -53 -28 -53 -23 0 -24 2 -24 78 0 43 3 82 7 85 9 10 31
8 38 -3z m213 -17 c6 -9 12 -45 12 -80 l0 -64 -32 0 c-18 0 -45 0 -61 0 -37
-1 -57 17 -57 52 0 33 23 49 69 49 17 0 31 4 31 9 0 15 -29 21 -54 11 -19 -7
-26 -5 -30 7 -8 19 -7 19 24 32 32 14 82 5 98 -16z m97 17 c4 -6 15 -6 30 0
22 8 25 7 25 -13 0 -13 -9 -26 -22 -32 -19 -8 -24 -19 -26 -62 -3 -49 -5 -53
-28 -53 -23 0 -24 2 -24 78 0 43 3 82 7 85 9 10 31 8 38 -3z m133 -77 c3 -83
3 -83 -23 -83 -25 0 -25 1 -25 86 0 83 1 85 23 82 20 -3 22 -9 25 -85z m87 77
c4 -7 13 -6 27 1 28 15 65 -3 78 -37 6 -14 10 -48 10 -75 0 -46 -2 -49 -25
-49 -23 0 -25 3 -25 48 0 60 -20 93 -44 73 -11 -9 -16 -30 -16 -67 0 -51 -1
-54 -25 -54 -25 0 -25 1 -25 85 0 77 2 85 19 85 11 0 23 -5 26 -10z m458 -1
c33 -18 37 -28 37 -97 l0 -63 -32 0 c-18 0 -45 0 -61 0 -37 -1 -57 17 -57 52
0 33 23 49 69 49 17 0 31 4 31 9 0 15 -29 21 -54 11 -13 -5 -27 -6 -30 -3 -14
14 -4 32 22 41 37 14 50 14 75 1z m348 -8 c19 -15 24 -30 27 -85 l4 -66 -39 2
c-22 0 -45 -2 -51 -6 -6 -4 -21 -2 -32 4 -57 31 -40 100 25 100 19 0 35 5 35
10 0 17 -27 23 -48 11 -15 -8 -23 -7 -32 4 -15 18 -13 21 20 34 38 15 66 13
91 -8z m197 -4 c2 -10 -13 -36 -35 -60 l-38 -42 38 -3 c29 -3 37 -7 37 -23 0
-17 -7 -19 -70 -19 -66 0 -70 1 -70 22 0 12 17 39 37 60 l37 38 -31 0 c-35 0
-48 12 -39 36 9 24 130 16 134 -9z m83 -14 c1 -21 2 -42 4 -48 1 -5 3 -18 3
-28 2 -13 9 -17 25 -15 19 3 23 10 27 63 4 53 8 60 28 63 21 3 22 1 22 -83 l0
-86 -32 0 c-18 0 -46 0 -62 0 -42 -1 -56 19 -60 91 -5 73 -3 80 25 80 15 0 19
-7 20 -37z m-441 -43 c0 -18 -7 -20 -55 -20 -48 0 -55 2 -55 20 0 18 7 20 55
20 48 0 55 -2 55 -20z m-1016 -206 c28 -11 17 -20 -17 -16 -40 5 -67 -17 -67
-54 0 -26 33 -41 69 -29 30 9 26 -4 -4 -15 -31 -12 -72 2 -77 27 -13 58 42
108 96 87z m752 -40 c-8 -5 -18 -22 -21 -37 -6 -22 -4 -27 11 -27 14 0 15 -3
6 -12 -17 -17 -29 0 -34 48 -4 48 9 66 35 50 15 -9 15 -13 3 -22z m72 16 c13
0 11 -4 -6 -20 -27 -25 -29 -60 -4 -60 14 0 15 -2 2 -10 -22 -13 -35 4 -35 48
0 35 16 70 23 51 2 -5 11 -9 20 -9z m-773 -54 c5 -17 9 -15 31 18 14 21 28 35
31 33 3 -3 -14 -33 -36 -66 -27 -40 -49 -61 -61 -61 -11 0 -20 5 -20 11 0 6 6
9 14 6 25 -10 37 16 26 54 -12 42 -12 73 0 44 5 -11 11 -29 15 -39z m159 19
c-11 -59 -13 -62 -42 -60 -38 2 -52 12 -52 37 0 34 27 57 66 55 33 -2 34 -4
28 -32z m104 27 c14 -2 15 -47 1 -77 -7 -15 -8 -11 -6 20 2 36 0 40 -23 40
-20 0 -27 -7 -36 -40 -13 -42 -19 -20 -8 32 6 29 15 32 72 25z m116 -8 c9 -8
16 -17 16 -19 0 -12 -24 -55 -31 -55 -4 0 -14 -3 -22 -6 -17 -6 -47 21 -47 42
0 18 36 54 54 54 8 0 22 -7 30 -16z m114 4 c35 -30 -8 -94 -55 -82 -19 5 -23
2 -23 -15 0 -12 -4 -21 -9 -21 -8 0 -5 21 14 105 5 22 51 31 73 13z m97 2 c4
-6 -5 -10 -19 -10 -33 0 -33 -13 -1 -28 14 -6 25 -16 25 -22 0 -17 -49 -32
-68 -20 -14 7 -10 9 16 10 38 0 42 12 7 28 -29 14 -32 27 -7 41 22 13 39 14
47 1z m40 -39 c-4 -23 -10 -41 -15 -41 -4 0 -4 17 1 38 5 20 9 41 9 46 0 5 3
7 6 3 3 -3 3 -24 -1 -46z m230 40 c3 -5 -7 -11 -22 -13 -22 -2 -28 -8 -28 -28
0 -20 5 -25 25 -25 19 0 25 6 31 33 4 18 9 35 12 38 11 11 13 -13 5 -52 -8
-37 -11 -40 -39 -38 -57 4 -75 38 -39 74 21 21 45 26 55 11z m160 -1 c4 -6 -5
-10 -19 -10 -31 0 -34 -16 -6 -25 11 -3 20 -15 20 -25 0 -21 -36 -33 -59 -20
-12 7 -8 9 17 10 17 0 32 5 32 10 0 6 -4 10 -8 10 -5 0 -17 6 -27 14 -16 12
-17 16 -6 30 15 18 47 21 56 6z m103 -2 c33 -28 -10 -98 -52 -82 -11 4 -19 -1
-26 -17 -8 -19 -9 -13 -5 29 3 29 8 58 10 65 6 15 56 19 73 5z m56 -25 c-10
-57 -26 -77 -18 -23 6 46 11 60 20 60 3 0 2 -17 -2 -37z m51 20 c12 -17 14
-17 34 1 12 11 21 14 21 9 0 -6 -7 -16 -16 -24 -10 -8 -13 -21 -9 -38 5 -24 4
-24 -8 -9 -13 17 -15 17 -32 -2 -10 -11 -20 -18 -23 -15 -3 3 3 14 13 25 15
17 16 24 7 45 -13 29 -5 33 13 8z m89 -20 c-10 -57 -27 -77 -19 -24 3 24 8 48
11 53 11 18 15 6 8 -29z m41 -18 c-3 -26 -9 -44 -12 -41 -3 3 -2 26 2 51 3 26
9 44 12 41 3 -3 2 -26 -2 -51z"/>
<path d="M2061 13702 c-6 -2 -11 -11 -11 -19 0 -13 10 -15 64 -10 34 3 67 2
72 -2 5 -5 20 -12 34 -15 24 -7 24 -6 -2 9 -16 9 -28 19 -28 24 0 4 12 6 28 3
15 -3 23 -1 19 4 -8 9 -153 14 -176 6z"/>
<path d="M2110 13540 c0 -5 5 -10 11 -10 5 0 7 5 4 10 -3 6 -8 10 -11 10 -2 0
-4 -4 -4 -10z"/>
<path d="M2450 13504 c-15 -39 -12 -45 18 -32 41 18 47 25 32 43 -19 22 -39
18 -50 -11z"/>
<path d="M1740 13516 c0 -2 7 -6 15 -10 8 -3 15 -1 15 4 0 6 -7 10 -15 10 -8
0 -15 -2 -15 -4z"/>
<path d="M1605 13480 c-3 -5 -2 -10 4 -10 5 0 13 5 16 10 3 6 2 10 -4 10 -5 0
-13 -4 -16 -10z"/>
<path d="M1800 13479 c13 -6 28 -15 32 -22 4 -6 10 -8 14 -4 10 10 -27 36 -51
36 -17 0 -16 -2 5 -10z"/>
<path d="M2530 13475 c0 -2 10 -10 23 -16 20 -11 21 -11 8 4 -13 16 -31 23
-31 12z"/>
<path d="M1534 13441 c0 -15 3 -17 13 -9 7 6 13 14 13 19 0 5 -6 9 -13 9 -7 0
-13 -9 -13 -19z"/>
<path d="M2583 13437 c0 -11 21 -14 65 -9 6 1 12 7 12 13 0 8 -5 7 -15 -1 -12
-10 -19 -10 -27 -2 -16 16 -35 15 -35 -1z"/>
<path d="M2602 13392 c-18 -3 -22 -9 -20 -33 3 -33 5 -34 31 -14 26 19 18 51
-11 47z"/>
<path d="M1442 13356 c1 -20 6 -40 11 -43 4 -3 5 12 1 34 -9 51 -16 56 -12 9z"/>
<path d="M2625 13310 c-19 -7 -19 -8 -2 -15 19 -8 31 -2 26 13 -2 5 -13 6 -24
2z"/>
<path d="M1460 13284 c0 -8 5 -12 10 -9 6 3 10 10 10 16 0 5 -4 9 -10 9 -5 0
-10 -7 -10 -16z"/>
<path d="M2571 13281 c-12 -8 -12 -12 -2 -25 11 -13 14 -13 31 2 15 12 16 18
7 24 -15 10 -19 10 -36 -1z"/>
<path d="M2753 13282 c-13 -2 -23 -7 -23 -11 0 -12 41 -47 49 -41 21 16 41 35
41 41 0 9 -39 15 -67 11z"/>
<path d="M2871 13239 c-12 -27 -11 -32 5 -44 29 -22 37 -18 30 13 -4 15 -8 32
-9 39 -6 24 -13 22 -26 -8z"/>
<path d="M2570 13200 c0 -5 5 -10 10 -10 6 0 10 5 10 10 0 6 -4 10 -10 10 -5
0 -10 -4 -10 -10z"/>
<path d="M2362 13166 c10 -7 15 -16 11 -19 -3 -4 1 -7 10 -7 10 0 17 2 17 4 0
10 -32 36 -43 36 -7 0 -4 -7 5 -14z"/>
<path d="M2617 13161 c-7 -27 3 -34 19 -13 17 22 17 32 0 32 -7 0 -16 -9 -19
-19z"/>
<path d="M2894 13145 c4 -16 2 -25 -5 -25 -7 0 -9 -3 -6 -6 9 -9 37 15 37 31
0 7 -7 16 -16 19 -13 5 -15 1 -10 -19z"/>
<path d="M2686 13115 c-11 -8 -30 -15 -43 -15 -14 0 -23 -6 -23 -15 0 -17 16
-20 25 -5 4 6 11 8 16 5 5 -4 9 -2 9 4 0 5 10 11 22 13 12 2 23 9 26 16 5 16
-8 15 -32 -3z"/>
<path d="M2909 13109 c-9 -13 -19 -32 -22 -42 -6 -15 -3 -17 14 -12 15 5 19 4
15 -4 -9 -13 -9 -13 31 -2 22 7 33 6 37 -2 2 -7 5 -4 5 6 1 12 -7 17 -24 17
-16 0 -23 5 -19 13 2 7 -2 21 -9 31 -13 17 -14 17 -28 -5z"/>
<path d="M2568 13063 c7 -3 16 -2 19 1 4 3 -2 6 -13 5 -11 0 -14 -3 -6 -6z"/>
<path d="M2543 13035 c0 -16 7 -18 31 -9 24 9 19 24 -7 24 -14 0 -24 -6 -24
-15z"/>
<path d="M2493 12984 c-32 -34 -43 -64 -23 -64 6 0 9 5 8 11 -2 6 11 16 29 23
32 11 71 42 62 50 -20 18 -47 11 -76 -20z"/>
<path d="M2365 12920 c3 -5 8 -10 11 -10 2 0 4 5 4 10 0 6 -5 10 -11 10 -5 0
-7 -4 -4 -10z"/>
<path d="M2628 12883 c7 -3 16 -2 19 1 4 3 -2 6 -13 5 -11 0 -14 -3 -6 -6z"/>
<path d="M2358 12873 c7 -3 16 -2 19 1 4 3 -2 6 -13 5 -11 0 -14 -3 -6 -6z"/>
<path d="M2305 12860 c3 -5 11 -10 16 -10 6 0 7 5 4 10 -3 6 -11 10 -16 10 -6
0 -7 -4 -4 -10z"/>
<path d="M1570 12850 c0 -5 5 -10 11 -10 5 0 7 5 4 10 -3 6 -8 10 -11 10 -2 0
-4 -4 -4 -10z"/>
<path d="M2330 12834 c0 -14 27 -50 33 -44 3 3 -3 16 -13 30 -11 14 -20 20
-20 14z"/>
<path d="M2243 12783 c-17 -6 -17 -20 0 -26 8 -3 13 3 13 14 0 11 0 19 -1 18
0 0 -6 -3 -12 -6z"/>
<path d="M2225 12610 c3 -5 8 -10 11 -10 2 0 4 5 4 10 0 6 -5 10 -11 10 -5 0
-7 -4 -4 -10z"/>
<path d="M2250 12603 c0 -5 5 -15 10 -23 8 -12 10 -11 10 8 0 12 -4 22 -10 22
-5 0 -10 -3 -10 -7z"/>
<path d="M1270 12545 c0 -9 6 -12 15 -9 8 4 15 7 15 9 0 2 -7 5 -15 9 -9 3
-15 0 -15 -9z"/>
<path d="M2377 12324 c3 -7 9 -14 14 -14 14 0 10 17 -5 23 -10 4 -13 1 -9 -9z"/>
<path d="M2283 12315 c5 -15 34 -18 39 -3 4 8 -3 13 -18 13 -13 0 -23 -4 -21
-10z"/>
<path d="M1022 11995 c-11 -23 -10 -25 14 -25 22 0 24 2 13 23 -6 12 -13 23
-14 25 -1 1 -7 -9 -13 -23z"/>
<path d="M1347 11943 c-14 -13 -6 -23 18 -23 16 0 25 6 25 15 0 15 -31 21 -43
8z"/>
<path d="M2147 11943 c-14 -13 -6 -24 15 -21 27 4 36 28 11 28 -11 0 -23 -3
-26 -7z"/>
<path d="M2482 11943 c-10 -4 -10 -8 -1 -19 8 -10 16 -11 30 -3 33 17 7 37
-29 22z"/>
<path d="M1505 11700 c-8 -25 1 -40 25 -40 21 0 40 28 33 48 -8 20 -51 14 -58
-8z"/>
<path d="M1747 11713 c-4 -3 -7 -17 -7 -30 0 -21 4 -24 28 -21 21 2 28 9 30
31 3 23 0 27 -21 27 -13 0 -27 -3 -30 -7z"/>
<path d="M1862 11703 c-12 -24 -4 -43 18 -43 23 0 44 26 36 45 -7 21 -43 19
-54 -2z"/>
<path d="M2492 11703 c-12 -24 -4 -43 18 -43 23 0 44 26 36 45 -7 21 -43 19
-54 -2z"/>
<path d="M10728 14100 c-38 -38 -38 -40 -37 -117 1 -43 4 -88 7 -101 l7 -23
22 20 c12 12 26 21 31 21 5 0 16 8 26 19 13 14 15 30 11 77 -11 111 -16 144
-23 144 -4 0 -24 -18 -44 -40z"/>
<path d="M10776 13721 c-19 -21 -12 -28 13 -12 7 5 12 14 9 21 -2 7 -10 4 -22
-9z"/>
<path d="M7145 13529 c-199 -18 -443 -113 -638 -246 -106 -73 -276 -221 -346
-302 l-52 -60 191 -128 c112 -75 184 -129 174 -131 -21 -5 -331 31 -467 53
-26 4 -30 0 -52 -48 -40 -91 -85 -227 -105 -316 -41 -184 -48 -439 -19 -645 5
-38 8 -71 6 -73 -3 -2 -44 -8 -93 -13 -611 -68 -1128 -315 -1560 -745 -318
-317 -561 -688 -750 -1142 -58 -138 -141 -383 -174 -510 -17 -64 -32 -118 -34
-120 -2 -2 -136 83 -297 190 -447 295 -860 554 -1159 727 -80 46 -181 105
-225 131 -90 53 -300 159 -314 159 -35 0 -161 -305 -216 -520 -78 -310 -71
-668 21 -942 14 -43 29 -78 32 -78 4 0 81 18 171 40 90 22 170 40 178 40 8 0
-58 -61 -146 -135 -89 -75 -161 -140 -161 -144 0 -18 109 -221 157 -292 173
-256 435 -499 717 -667 57 -34 107 -62 111 -62 3 0 104 88 223 196 119 108
218 191 220 185 2 -5 -28 -117 -67 -248 -39 -131 -71 -245 -71 -254 0 -18 107
-53 290 -93 101 -22 159 -31 338 -52 l42 -5 0 -122 c0 -98 23 -464 33 -510 1
-6 -22 -14 -53 -19 -30 -5 -78 -20 -108 -33 -53 -24 -56 -25 -113 -10 -32 9
-100 16 -151 16 -136 1 -188 -24 -188 -91 0 -53 54 -152 128 -232 l62 -68 0
-80 c0 -176 73 -290 225 -350 186 -73 310 -171 370 -294 45 -90 53 -162 31
-275 -20 -105 -21 -242 -1 -308 33 -110 150 -197 310 -230 136 -27 265 5 412
105 100 68 244 232 306 347 32 59 27 58 113 31 156 -50 427 -107 728 -156 72
-11 132 -22 134 -24 1 -2 -31 -46 -72 -97 -185 -230 -250 -462 -174 -614 24
-48 24 -53 12 -110 -25 -115 -17 -178 27 -200 62 -32 157 -15 308 56 75 36
116 49 148 49 100 0 285 56 400 120 l52 29 34 -48 35 -48 -14 -59 c-18 -78
-18 -154 1 -181 21 -30 77 -46 133 -38 67 10 124 31 232 85 87 43 103 48 191
54 207 14 351 79 502 225 78 74 129 145 180 246 69 136 91 239 85 399 l-3 109
90 24 c376 99 761 275 1057 485 336 237 659 575 866 905 177 283 199 446 70
515 -38 20 -57 23 -158 23 -144 -1 -332 -41 -588 -126 -35 -12 -65 -19 -68
-16 -3 2 4 38 15 78 34 125 43 199 42 334 0 122 -28 327 -47 344 -4 3 -4 -10
0 -29 49 -236 45 -440 -14 -647 -75 -270 -285 -546 -545 -720 -259 -174 -540
-252 -859 -240 -484 18 -974 191 -1331 468 -99 77 -163 136 -154 142 2 2 112
70 244 152 250 155 273 170 262 181 -9 9 -162 -22 -672 -136 l-40 -9 -103 107
c-252 261 -444 552 -537 815 -15 43 -26 79 -24 81 26 26 754 45 1044 27 634
-39 1286 -149 1820 -308 152 -45 219 -62 224 -58 2 2 -30 13 -70 25 -41 12
-108 32 -149 45 -41 14 -127 38 -190 56 -63 17 -117 33 -119 35 -2 2 43 52
101 111 284 293 454 635 540 1088 19 104 22 153 23 365 0 282 -10 349 -92 584
-146 422 -366 664 -678 746 -102 27 -341 37 -481 21 -151 -18 -328 -56 -490
-107 -194 -60 -294 -83 -406 -93 -84 -8 -100 -7 -168 15 -100 31 -197 50 -299
59 -68 5 -99 14 -155 42 -82 41 -82 34 0 -12 l56 -32 -76 -6 c-131 -11 -293
-61 -396 -121 -25 -14 -48 -26 -51 -26 -4 0 -10 15 -13 33 -10 55 -63 154
-106 201 -51 55 -142 102 -214 111 -199 25 -457 -169 -598 -450 -49 -96 -94
-228 -114 -332 -24 -121 -24 -336 -1 -423 56 -206 174 -325 332 -334 l60 -3
-3 -46 c-2 -25 2 -107 8 -183 27 -320 148 -606 275 -649 34 -11 45 -11 73 1
30 12 33 12 39 -4 44 -126 133 -252 223 -314 29 -21 48 -38 41 -38 -35 0 63
-255 164 -424 36 -60 63 -111 60 -114 -7 -7 -333 74 -425 105 -289 98 -505
228 -690 413 -214 214 -341 457 -400 770 -50 257 -39 640 26 930 120 533 266
866 479 1088 169 177 389 275 580 258 129 -12 233 -56 341 -143 38 -31 58 -44
44 -29 -35 40 -136 109 -195 135 -221 97 -473 51 -694 -125 -237 -190 -419
-531 -541 -1014 -173 -679 -120 -1234 158 -1656 242 -368 636 -606 1225 -739
l118 -27 71 -96 c129 -175 338 -396 367 -387 91 27 587 126 574 115 -9 -9
-197 -128 -330 -209 -51 -31 -93 -61 -93 -66 0 -15 92 -102 165 -157 233 -175
525 -314 835 -398 l105 -28 -200 -1 c-186 -1 -459 15 -650 39 -44 5 -141 17
-215 25 -354 42 -1121 186 -1240 233 -21 8 -32 28 -59 108 -18 55 -45 122 -58
149 -105 207 -309 393 -508 463 -96 34 -238 41 -336 17 -72 -17 -79 -17 -227
11 -39 8 -157 213 -212 369 l-32 90 6 195 c7 202 31 657 42 770 57 630 244
1264 518 1755 163 291 314 493 541 720 368 369 766 592 1248 699 139 31 325
58 369 54 31 -3 32 -5 54 -93 24 -97 84 -269 90 -262 3 2 -4 29 -15 58 -74
203 -103 379 -105 629 0 107 3 212 7 232 7 33 13 39 45 47 198 48 537 129 538
128 1 -1 -30 -67 -68 -147 -118 -243 -189 -442 -218 -613 -6 -34 -13 -75 -16
-92 -4 -16 -4 -28 -1 -25 3 3 16 51 28 105 36 170 134 447 216 613 41 83 79
152 83 152 4 0 27 -30 51 -67 25 -38 67 -102 96 -143 161 -236 326 -507 319
-525 -14 -38 -445 -262 -664 -345 -62 -24 -111 -45 -109 -47 16 -15 337 116
536 218 l155 80 120 -36 c824 -248 1372 -805 1612 -1638 46 -162 89 -378 111
-562 25 -209 25 -769 0 -1005 -23 -212 -33 -287 -63 -440 l-23 -125 34 -90
c19 -49 34 -84 35 -77 0 7 -14 48 -30 91 l-30 78 15 74 c83 392 122 933 95
1319 -24 334 -68 575 -155 850 -107 338 -292 662 -519 908 -66 72 -234 215
-335 286 -204 143 -505 285 -747 353 -52 15 -94 29 -94 33 0 3 21 18 48 35
104 65 242 174 336 264 217 211 362 463 421 731 25 116 31 362 11 498 -27 181
-106 420 -146 442 -47 25 -258 41 -385 29z m341 -39 c41 -12 42 -13 82 -114
72 -180 108 -392 99 -590 -15 -353 -149 -639 -431 -922 -124 -123 -276 -240
-288 -222 -5 7 -34 56 -65 108 -48 79 -119 187 -283 429 -14 20 -49 69 -77
109 -29 39 -53 76 -53 80 0 30 222 340 341 477 131 150 404 398 555 503 55 38
76 66 27 35 -58 -36 -251 -184 -319 -245 -201 -179 -469 -495 -582 -685 -23
-40 -46 -74 -50 -77 -10 -6 -557 -146 -571 -146 -17 0 -13 40 18 161 26 104
78 254 100 287 6 11 47 9 222 -12 323 -37 339 -39 339 -29 0 5 -90 69 -201
143 -110 74 -203 138 -206 143 -7 11 105 126 212 216 220 187 485 317 723 356
99 16 342 13 408 -5z m-186 -3109 c170 -39 269 -91 392 -209 132 -127 228
-290 312 -532 80 -229 96 -326 97 -575 0 -196 -18 -353 -60 -517 -76 -294
-187 -526 -357 -749 -87 -113 -255 -279 -283 -279 -10 0 -120 22 -242 50 -454
101 -990 168 -1376 171 -70 1 -156 4 -191 8 l-63 6 66 43 c142 94 305 272 420
460 50 82 74 110 140 163 167 135 281 345 330 608 50 271 -24 593 -189 823
-90 128 -187 212 -382 335 -17 10 -14 12 21 12 77 2 225 31 382 77 249 73 369
98 613 128 72 9 287 -5 370 -23z m-5936 -154 c250 -131 776 -452 1531 -937
343 -220 327 -209 320 -237 -3 -14 -9 -38 -12 -54 -6 -34 -15 -36 -51 -10 -15
10 -94 60 -177 111 -82 51 -197 122 -255 158 -388 241 -1048 627 -1108 648
-21 7 -63 13 -94 14 -47 0 -62 -4 -88 -26 -48 -41 -63 -79 -68 -179 -15 -299
222 -813 524 -1134 255 -271 666 -521 1094 -666 l95 -32 -3 -199 c-1 -109 -5
-238 -9 -286 -7 -103 10 -96 -170 -73 -127 17 -296 53 -406 85 -54 17 -67 24
-63 38 2 9 34 118 70 242 76 260 83 290 68 290 -6 0 -82 -64 -169 -142 -87
-79 -191 -171 -230 -206 l-72 -63 -101 63 c-237 147 -433 317 -587 508 -85
106 -204 295 -242 382 l-20 47 77 64 c42 35 84 70 92 78 8 8 28 25 44 37 122
94 181 164 124 148 -13 -4 -79 -20 -148 -36 -69 -17 -153 -38 -188 -46 -35 -9
-64 -15 -66 -13 -6 6 -53 179 -65 234 -59 282 -30 643 74 930 62 171 134 325
152 325 3 0 61 -28 127 -63z m4252 8 c119 -21 202 -48 307 -103 183 -95 342
-257 432 -438 45 -91 90 -218 74 -208 -15 9 -10 -13 5 -25 8 -7 12 -21 9 -31
-3 -11 0 -27 7 -35 7 -8 9 -22 6 -32 -4 -9 -2 -20 4 -23 8 -5 6 -9 -5 -13 -10
-5 -19 1 -25 16 -8 17 -9 14 -5 -18 3 -22 1 -47 -5 -55 -8 -11 -9 -8 -4 14 5
20 3 27 -4 22 -6 -3 -9 -21 -6 -38 4 -33 -39 -135 -63 -151 -7 -4 -13 -20 -13
-35 0 -21 -2 -24 -10 -12 -9 13 -13 12 -30 -9 -11 -13 -20 -29 -20 -36 0 -14
-101 -105 -116 -105 -11 0 -74 -67 -74 -79 0 -5 -8 -12 -17 -15 -33 -13 -63
-31 -63 -38 0 -5 -9 -8 -20 -8 -10 0 -24 -9 -30 -20 -8 -15 -17 -19 -34 -14
-14 3 -27 -1 -35 -10 -8 -9 -20 -16 -29 -16 -18 0 -85 -22 -92 -31 -27 -31
-398 -65 -533 -48 -110 13 -340 70 -350 85 -4 7 -28 20 -55 30 -26 10 -54 23
-62 29 -8 6 -37 22 -65 36 -27 13 -58 32 -69 42 -11 9 -30 17 -43 17 -13 0
-23 4 -23 10 0 5 -13 16 -29 25 -36 18 -151 129 -151 146 0 18 -50 60 -62 53
-8 -5 -9 5 -5 32 6 38 6 39 -9 14 l-15 -25 6 25 c4 14 6 37 6 52 -1 15 3 29 8
32 4 3 6 16 4 28 -6 33 48 191 111 320 166 346 489 595 836 647 92 14 262 12
356 -4z m-1085 -88 c43 -29 68 -92 68 -176 1 -58 -2 -68 -32 -105 -107 -132
-212 -324 -264 -486 -15 -47 -32 -88 -37 -92 -23 -16 -75 -7 -105 18 -41 34
-61 105 -61 215 0 221 164 549 311 623 65 32 77 32 120 3z m-2867 -281 c61
-33 180 -103 391 -228 112 -67 449 -271 630 -382 55 -34 182 -111 281 -170
100 -60 191 -117 203 -126 l22 -16 -20 -99 c-43 -213 -74 -495 -87 -777 -4
-87 -10 -158 -15 -158 -33 0 -326 117 -464 185 -439 217 -707 450 -938 815
-74 117 -193 360 -226 460 -80 247 -80 449 2 515 29 24 38 26 96 21 47 -4 79
-14 125 -40z m3271 -1575 c3 -5 2 -12 -3 -15 -5 -3 -9 1 -9 9 0 17 3 19 12 6z
m397 -125 c25 -8 50 -11 54 -8 4 4 4 2 1 -5 -4 -6 -1 -13 5 -16 32 -11 -117
-97 -212 -122 -144 -39 -346 5 -393 85 l-17 28 94 22 c174 41 366 47 468 16z
m330 -267 c-11 -10 -19 -12 -24 -6 -10 16 -1 26 22 24 18 -1 18 -2 2 -18z
m-36 -11 c5 -7 2 -9 -8 -6 -8 4 -15 0 -15 -8 0 -7 5 -10 10 -7 6 3 7 1 3 -5
-4 -7 -16 -12 -26 -12 -10 0 -21 -4 -24 -8 -6 -10 -36 -9 -55 2 -7 5 -17 4
-23 -2 -7 -7 -4 -10 8 -9 13 2 18 -4 17 -18 -1 -20 -1 -20 13 -1 7 11 17 16
21 13 3 -4 4 -8 2 -10 -2 -2 -21 -15 -41 -30 -23 -17 -43 -25 -54 -20 -10 4
-15 2 -11 -4 3 -5 1 -10 -6 -10 -7 0 -46 -3 -87 -6 -46 -4 -67 -2 -55 3 16 7
17 9 3 9 -9 1 -19 -3 -22 -7 -3 -5 -36 -9 -73 -10 -37 -1 -84 -4 -104 -7 -25
-5 -39 -2 -49 9 -7 9 -18 16 -24 16 -6 0 -4 -5 4 -10 12 -8 11 -10 -7 -10 -13
0 -23 6 -23 13 0 8 -3 7 -9 -3 -6 -8 -7 -18 -5 -22 3 -4 0 -8 -5 -8 -6 0 -11
9 -11 19 0 16 -6 19 -35 17 -45 -4 -97 31 -73 48 14 10 14 13 0 26 -14 13 -15
12 -9 -3 10 -26 -8 -21 -48 14 -36 32 -40 58 -5 37 14 -9 16 -14 7 -20 -8 -5
-7 -8 6 -8 9 0 17 4 17 9 0 10 136 -15 163 -30 36 -20 289 -8 436 21 75 14
145 31 156 38 26 15 32 15 41 0z m-666 -148 c0 -5 -5 -10 -11 -10 -5 0 -7 5
-4 10 3 6 8 10 11 10 2 0 4 -4 4 -10z m-1797 -580 c27 -58 62 -124 78 -147 16
-23 29 -44 29 -46 0 -2 -21 -7 -47 -10 -68 -7 -86 -33 -81 -112 3 -38 14 -80
31 -114 33 -67 29 -104 -12 -95 -14 4 -27 8 -29 9 -12 9 -43 450 -41 594 0 64
2 72 12 51 6 -14 33 -72 60 -130z m687 -256 c36 -8 95 -30 132 -49 76 -38 188
-123 218 -165 23 -32 26 -48 7 -31 -10 8 -14 7 -14 -3 0 -7 11 -12 26 -12 23
1 25 -3 27 -42 2 -27 -1 -40 -8 -36 -6 4 -5 -2 1 -15 7 -12 9 -26 6 -31 -3 -6
-2 -10 2 -10 8 0 32 32 45 60 6 13 7 13 7 -1 1 -9 8 -22 16 -29 20 -17 0 -43
-26 -35 -11 4 -19 2 -19 -3 0 -15 22 -20 46 -11 16 6 24 1 38 -22 20 -34 6
-40 -17 -6 -15 21 -15 20 -4 -13 7 -20 29 -52 50 -72 37 -37 43 -49 30 -62 -5
-4 -8 -25 -9 -46 0 -29 3 -37 14 -33 11 5 11 7 0 14 -11 7 -10 11 2 20 11 8
12 12 3 16 -7 2 -13 9 -13 15 0 7 5 6 14 -1 8 -7 13 -24 12 -39 -2 -14 3 -32
10 -40 8 -7 14 -23 14 -35 0 -12 3 -33 6 -47 4 -20 3 -22 -5 -10 -9 13 -11 13
-11 -2 0 -10 5 -18 11 -18 7 0 9 -10 5 -26 -4 -15 -2 -32 5 -40 8 -10 9 -59 5
-171 -4 -87 -6 -177 -6 -200 0 -23 -5 -45 -10 -48 -6 -4 -8 -16 -4 -28 6 -19
5 -20 -10 -5 -9 9 -13 25 -10 35 3 10 -2 7 -10 -7 -13 -22 -15 -23 -16 -5 0
16 -2 17 -12 6 -10 -11 -10 -14 0 -18 6 -3 12 -11 12 -20 0 -8 7 -21 15 -29 8
-9 15 -12 15 -7 0 5 -5 14 -11 20 -6 6 -9 17 -7 25 3 9 8 6 16 -9 12 -22 6
-83 -9 -83 -5 0 -6 8 -2 18 4 13 3 14 -6 6 -8 -7 -9 -19 -3 -35 10 -27 5 -59
-9 -59 -5 0 -9 -11 -9 -25 0 -14 -4 -25 -10 -25 -5 0 -10 -12 -10 -26 0 -14
-4 -23 -9 -20 -5 3 -12 -1 -15 -10 -3 -8 -2 -12 4 -9 19 12 10 -9 -13 -30 -13
-11 -16 -15 -8 -10 12 8 12 7 3 -11 -6 -12 -9 -24 -6 -27 3 -3 -3 -4 -13 -3
-13 1 -19 -7 -20 -29 -2 -27 -2 -28 7 -7 5 12 12 22 14 22 14 0 -14 -46 -32
-55 -12 -5 -22 -13 -22 -18 0 -4 5 -5 11 -1 7 4 1 -12 -11 -35 -27 -46 -60
-81 -60 -62 0 6 7 14 15 17 8 4 15 12 15 20 0 8 4 14 10 14 5 0 7 7 4 15 -4 8
-2 15 4 15 5 0 10 6 9 13 -1 34 4 48 15 41 6 -4 8 -3 5 3 -6 9 11 79 31 133 3
8 7 22 8 30 2 8 8 38 14 65 22 102 40 211 40 246 0 20 3 39 8 43 9 9 10 216 1
216 -4 0 -10 17 -13 38 -8 42 -53 142 -65 142 -7 0 -22 11 -68 50 -7 5 -18 10
-25 10 -17 1 -58 35 -58 48 0 6 -17 3 -40 -6 -22 -9 -40 -20 -40 -23 0 -10
-123 -129 -133 -129 -5 0 -4 7 3 15 7 8 8 15 3 15 -16 0 -32 -22 -26 -36 3 -9
-1 -14 -11 -14 -9 0 -28 -11 -42 -25 -14 -14 -32 -25 -40 -25 -8 0 -24 -5 -36
-11 -11 -6 -70 -12 -132 -14 l-111 -4 25 20 25 20 -33 -16 c-29 -14 -33 -14
-38 0 -3 8 -10 15 -16 15 -5 0 -6 -6 -2 -12 6 -10 4 -10 -7 -2 -8 7 -29 15
-47 19 -28 6 -32 10 -26 28 6 20 6 20 -10 4 -14 -13 -22 -15 -38 -6 -11 6 -17
13 -14 16 3 3 11 1 18 -4 9 -7 18 -4 31 9 11 12 13 18 5 18 -10 0 -10 2 -1 8
8 5 -2 8 -24 8 l-37 0 30 -12 29 -13 -35 2 -35 2 0 50 c0 49 0 49 -33 51 -32
2 -32 1 -13 -13 25 -17 27 -29 5 -37 -12 -4 -15 -2 -10 9 3 9 0 15 -9 15 -8 0
-15 7 -15 16 0 9 -5 12 -12 8 -6 -4 -8 -3 -5 3 3 5 0 22 -8 37 -8 14 -10 24
-6 21 5 -2 14 2 21 10 9 11 10 15 1 15 -8 0 -10 8 -6 23 5 19 4 20 -5 4 -6 -9
-9 -21 -6 -25 3 -5 -1 -9 -8 -9 -8 0 -11 8 -9 18 3 9 0 20 -6 23 -6 4 -11 15
-10 24 0 11 3 12 6 5 7 -19 33 -15 32 5 0 9 -3 12 -5 6 -8 -19 -53 7 -62 36
-17 55 0 175 30 207 18 20 19 23 4 17 -16 -6 -17 -5 -4 15 12 19 14 20 25 5 7
-9 10 -21 6 -27 -3 -6 -1 -7 5 -3 10 6 29 -17 31 -39 1 -5 6 -11 11 -11 22 -3
24 -4 12 -16 -16 -16 -15 -59 3 -82 13 -17 15 -17 15 -4 0 9 -4 20 -10 23 -5
3 -10 11 -10 18 0 8 3 8 12 -1 7 -7 20 -12 29 -12 9 0 23 -8 30 -17 12 -16 12
-17 -2 -6 -12 10 -16 10 -16 0 0 -8 24 -12 83 -12 45 0 80 3 78 6 -2 4 3 10
12 13 8 3 12 2 9 -4 -3 -6 -4 -10 -1 -10 2 0 13 -3 23 -6 15 -5 15 -4 3 5 -13
9 -12 11 5 11 17 0 18 2 5 10 -11 8 -7 9 15 4 23 -4 26 -3 15 5 -12 9 -11 11
8 11 13 0 21 4 18 9 -3 5 1 15 10 22 13 10 17 10 25 -2 8 -11 9 -9 5 6 -3 12
3 30 15 45 14 16 19 19 15 8 -3 -10 -1 -18 5 -18 7 0 9 12 7 29 -2 17 -1 28 4
25 4 -3 7 3 6 13 -3 27 12 115 23 136 6 11 6 17 -1 17 -5 0 -10 10 -10 23 0
12 -4 27 -8 32 -14 21 -95 74 -104 69 -13 -8 -10 4 8 31 15 22 23 25 83 25 36
0 95 -7 131 -16z m-232 -14 c-9 -14 -16 -16 -25 -8 -16 13 -10 23 16 25 18 1
19 -1 9 -17z m5734 -7 c32 -3 55 -9 52 -14 -3 -5 -14 -9 -25 -9 -10 0 -19 -4
-19 -8 0 -4 -26 -16 -57 -27 -64 -20 -98 -34 -192 -78 -36 -16 -85 -37 -110
-47 -87 -32 -151 -63 -151 -71 0 -5 -5 -9 -12 -9 -16 0 -118 -51 -118 -59 0
-4 -10 -7 -21 -8 -12 -1 -56 -19 -98 -40 -86 -42 -103 -49 -81 -34 8 6 15 14
15 18 0 7 79 176 104 222 13 26 425 144 556 160 79 10 90 10 157 4z m-6189
-294 c-3 -10 -8 -19 -12 -19 -3 0 -7 -21 -8 -46 -1 -25 -8 -53 -15 -62 -10
-12 -10 -14 0 -8 13 8 15 -6 5 -44 -6 -21 -8 -18 -24 28 -10 29 -16 61 -13 70
5 14 4 14 -4 2 -11 -18 -4 -90 9 -90 12 0 11 -41 -1 -60 -5 -8 -10 -10 -10 -5
0 6 -7 -1 -15 -15 -14 -24 -14 -23 -15 27 0 28 5 55 10 58 34 21 -14 84 -90
118 l-55 25 40 17 c45 20 124 32 171 27 25 -3 31 -8 27 -23z m1103 15 c-4 -11
-2 -15 8 -11 11 5 12 0 3 -24 -16 -40 -23 -36 -23 11 1 22 5 40 10 40 4 0 5
-7 2 -16z m-936 -124 c0 -5 -5 -10 -11 -10 -5 0 -7 5 -4 10 3 6 8 10 11 10 2
0 4 -4 4 -10z m-261 -33 c0 -21 -1 -21 -9 -2 -12 28 -12 37 0 30 6 -3 10 -16
9 -28z m5442 -10 c-10 -9 -11 -8 -5 6 3 10 9 15 12 12 3 -3 0 -11 -7 -18z
m-4127 -22 c6 -17 4 -18 -18 -9 -20 8 -21 24 -2 24 8 0 16 -7 20 -15z m-1324
-124 c-5 -11 -7 -28 -4 -38 5 -15 4 -16 -5 -2 -11 17 -4 59 11 59 5 0 4 -8 -2
-19z m-30 -81 c-6 -11 -8 -26 -4 -32 4 -7 3 -8 -4 -4 -7 4 -12 1 -12 -6 0 -10
-2 -10 -9 1 -7 11 -12 4 -21 -27 -10 -41 -30 -58 -30 -27 0 8 -4 15 -10 15 -5
0 -7 -7 -4 -15 4 -8 1 -15 -5 -15 -6 0 -11 2 -11 4 0 2 -3 12 -7 22 -4 12 -3
15 5 10 7 -4 12 -3 12 3 0 6 7 8 15 4 9 -3 15 -2 13 3 -2 5 -1 9 3 9 3 0 21
17 39 38 40 42 45 45 30 17z m1130 -40 c0 -5 -5 -10 -11 -10 -5 0 -7 5 -4 10
3 6 8 10 11 10 2 0 4 -4 4 -10z m-1414 -37 c4 -10 7 -21 6 -24 -1 -4 8 -15 18
-24 12 -11 20 -13 20 -7 0 7 14 12 31 12 16 0 28 4 25 9 -3 5 8 14 24 20 17 5
30 8 30 5 0 -26 22 -44 39 -30 12 9 13 8 7 -9 -5 -11 -11 -28 -13 -37 -6 -21
-29 -24 -36 -5 -2 6 -7 9 -11 5 -4 -3 -2 -15 5 -26 10 -17 10 -26 0 -48 -11
-25 -10 -30 5 -41 10 -7 25 -13 34 -13 24 0 112 -31 130 -45 8 -7 43 -18 77
-25 51 -10 63 -17 73 -39 6 -14 25 -33 43 -41 31 -14 66 -47 67 -64 0 -5 -7
-3 -15 4 -10 8 -15 9 -15 1 0 -6 11 -18 24 -26 24 -16 36 -51 38 -117 1 -20 5
-35 9 -32 10 6 20 -29 30 -101 4 -33 11 -73 15 -89 7 -29 -22 -214 -37 -230
-4 -5 -5 -15 -2 -22 4 -12 8 -12 22 -2 14 12 14 11 3 -4 -8 -9 -11 -22 -7 -28
4 -6 1 -18 -6 -26 -6 -8 -12 -28 -11 -45 0 -16 -3 -27 -7 -25 -4 3 -8 -1 -8
-9 0 -8 4 -12 8 -10 4 3 9 -11 11 -30 4 -38 -2 -43 -26 -19 -20 20 -21 30 -1
14 23 -19 18 4 -5 25 -18 16 -20 29 -18 102 2 46 6 83 9 83 3 0 4 15 3 33 -3
30 -3 30 6 7 8 -22 9 -21 7 13 -2 28 0 36 10 33 7 -3 13 -1 13 4 0 6 -4 10 -8
10 -4 0 -8 33 -7 74 0 41 3 72 8 69 4 -2 7 14 7 36 0 22 -4 42 -8 45 -5 3 -7
-9 -5 -27 2 -23 -2 -16 -15 23 -11 30 -25 69 -32 85 -7 17 -12 36 -11 43 1 7
-4 11 -11 10 -8 -2 -13 7 -14 22 -1 14 -2 30 -4 35 -2 6 -4 16 -4 24 -1 16
-44 23 -52 9 -4 -5 -13 0 -21 11 -8 12 -19 19 -24 16 -5 -3 -6 1 -3 10 5 13 9
13 23 3 9 -7 6 -1 -7 13 -12 14 -19 29 -15 33 4 4 0 4 -9 1 -8 -3 -22 1 -31 9
-13 14 -16 14 -21 0 -4 -10 -2 -13 6 -8 7 4 8 3 4 -4 -5 -8 -2 -10 8 -6 9 3
16 1 16 -5 0 -6 8 -11 18 -11 14 0 15 -2 2 -10 -9 -6 -17 -5 -22 3 -4 7 -8 8
-8 3 0 -5 -8 -2 -17 6 -10 8 -25 18 -33 22 -15 7 -40 22 -69 40 -12 8 -11 11
5 17 12 6 5 6 -17 3 -23 -4 -46 -1 -60 8 -13 7 -28 13 -34 14 -19 1 -65 27
-65 36 0 5 -4 7 -8 4 -5 -3 -9 1 -9 9 0 20 7 19 34 -7 13 -12 23 -19 23 -15 0
3 -10 15 -22 27 -14 13 -17 20 -8 20 7 0 11 2 8 5 -3 3 -18 0 -32 -7 -25 -11
-29 -9 -51 18 -13 16 -24 34 -24 39 -1 6 4 3 9 -5 7 -10 10 -11 10 -2 0 7 -7
15 -15 18 -11 5 -14 15 -9 39 4 23 2 34 -9 38 -8 3 -14 18 -14 32 0 18 2 23 8
14 4 -7 5 -17 2 -23 -3 -5 -1 -6 4 -3 6 4 8 18 6 32 -3 13 -9 22 -14 19 -5 -3
-9 2 -9 10 0 21 16 20 26 -1z m604 7 c0 -5 -4 -10 -10 -10 -5 0 -10 5 -10 10
0 6 5 10 10 10 6 0 10 -4 10 -10z m-545 -40 c-27 -12 -35 -12 -35 0 0 6 12 10
28 9 24 0 25 -1 7 -9z m542 -9 c0 -10 -7 -17 -13 -14 -7 3 -10 11 -7 19 8 20
22 17 20 -5z m1456 4 c12 -2 90 -15 172 -29 699 -120 1083 -168 1445 -181 85
-3 171 -8 190 -12 19 -3 54 -6 77 -5 24 0 41 -3 39 -7 -3 -4 -31 -6 -63 -5
-49 1 -54 0 -30 -8 17 -6 27 -16 26 -26 -2 -10 5 -34 14 -56 9 -21 17 -41 17
-44 0 -3 7 -12 15 -21 24 -25 65 -91 65 -104 0 -7 10 -17 22 -22 13 -6 24 -19
26 -30 2 -11 13 -29 23 -41 14 -15 18 -29 13 -53 -7 -31 -6 -32 20 -20 32 15
36 12 39 -38 1 -23 6 -39 11 -36 4 3 13 -1 18 -8 8 -11 9 -10 4 3 -3 10 -1 20
4 23 6 4 10 -7 10 -24 0 -24 4 -31 20 -31 17 0 20 -7 20 -41 0 -24 4 -38 10
-34 5 3 9 20 7 37 -1 18 3 33 11 35 7 3 10 -1 7 -9 -6 -15 1 -17 70 -19 l40
-1 -3 -39 c-3 -29 -8 -39 -22 -39 -10 0 -21 -7 -24 -16 -11 -28 -7 -37 9 -24
13 10 18 11 28 1 9 -10 9 -12 -2 -9 -7 2 -16 -3 -19 -11 -3 -8 0 -11 7 -7 6 4
11 2 11 -5 0 -7 3 -9 6 -6 4 3 15 -5 26 -18 11 -14 26 -25 34 -25 8 0 13 -4
10 -9 -3 -5 1 -12 10 -15 10 -4 14 -12 9 -24 -5 -14 -4 -15 6 -4 7 6 17 12 21
12 11 0 6 -23 -7 -32 -5 -4 -1 -8 11 -8 11 0 25 5 31 11 8 8 16 8 30 0 16 -11
16 -11 -4 -6 -12 3 -24 1 -28 -5 -3 -5 -1 -10 6 -10 40 0 -53 -38 -158 -65
-231 -58 -652 -67 -1078 -21 -137 14 -290 33 -340 42 -49 8 -103 15 -120 15
-28 0 -28 1 -7 9 26 11 29 20 5 14 -21 -5 -29 0 -63 41 -14 16 -17 23 -7 16
11 -9 17 -10 17 -2 0 11 -1 12 -36 16 -49 5 -104 63 -104 110 0 15 -5 36 -11
47 -9 18 -8 24 7 35 10 7 14 13 9 13 -5 0 -18 -8 -29 -17 -20 -18 -20 -18 -3
9 9 15 13 29 8 33 -5 3 -12 -1 -14 -7 -3 -7 -6 -3 -6 10 -1 12 -7 22 -16 22
-8 0 -15 9 -15 19 0 11 -11 28 -25 39 -14 11 -25 29 -25 41 0 12 -3 20 -7 20
-22 -4 -33 3 -33 20 0 10 -12 26 -26 36 -16 10 -22 20 -16 24 15 9 1 28 -23
33 -13 2 -20 11 -19 26 0 13 -7 24 -19 28 -10 3 -23 19 -29 35 -7 19 -17 29
-31 30 -12 0 -17 3 -11 5 19 8 3 45 -22 55 -17 6 -24 16 -24 34 0 28 -20 35
-20 8 -1 -10 -8 -2 -16 17 -8 19 -14 35 -12 35 4 1 -20 30 -59 71 -18 19 -33
43 -33 54 0 10 -9 21 -19 25 -11 3 -23 14 -26 24 -3 11 -17 32 -31 47 -46 54
-58 74 -34 59 6 -4 20 -8 33 -10z m1964 -251 c-3 -3 -12 -4 -19 -1 -8 3 -5 6
6 6 11 1 17 -2 13 -5z m-3514 -187 c-2 -4 1 -15 8 -23 10 -12 10 -17 -1 -27
-10 -9 -11 -9 -6 1 4 6 2 12 -3 12 -6 0 -10 6 -8 13 1 6 -4 11 -10 10 -7 -2
-13 3 -13 10 0 7 9 13 19 13 11 0 17 -4 14 -9z m4305 -425 l4 -123 -44 2 c-23
1 -55 -2 -70 -6 -23 -6 -33 -2 -58 23 -40 41 -42 101 -4 139 21 21 32 25 65
20 l39 -5 0 40 c0 38 1 39 32 36 l31 -3 5 -123z m-218 -35 l0 -92 -48 -2 c-26
-1 -60 -3 -75 -3 -50 -2 -85 66 -67 130 14 48 35 59 118 59 l72 0 0 -92z m375
81 c29 -13 31 -25 9 -49 -11 -13 -25 -16 -45 -12 -21 4 -30 1 -35 -11 -4 -10
-2 -22 4 -28 8 -8 4 -16 -14 -30 -29 -23 -49 -13 -57 29 -15 79 62 136 138
101z m135 -4 c0 -14 1 -14 16 0 24 24 34 19 34 -17 0 -26 -6 -36 -25 -45 -21
-10 -25 -18 -25 -57 l0 -45 -36 0 -36 0 4 80 c2 58 7 84 18 90 23 15 50 12 50
-6z m-100 -124 c-14 -27 -70 -51 -99 -43 -12 3 -21 9 -19 13 2 4 30 31 63 60
l60 52 3 -31 c2 -16 -2 -40 -8 -51z m-4335 -330 c22 -24 31 -38 21 -30 -11 8
-22 14 -25 12 -3 -2 -8 5 -12 15 -4 10 -8 14 -8 9 -1 -6 -7 -1 -15 9 -8 11
-12 24 -9 28 3 5 6 7 7 5 0 -2 19 -23 41 -48z m1795 -76 c0 -8 -5 -12 -10 -9
-6 4 -8 11 -5 16 9 14 15 11 15 -7z m33 -4 c6 0 19 -7 29 -17 10 -9 28 -21 40
-27 13 -6 28 -22 34 -35 7 -12 13 -18 15 -12 3 9 14 8 39 0 19 -7 37 -15 40
-19 3 -3 25 -16 50 -28 44 -21 44 -22 45 -75 1 -29 5 -59 10 -67 5 -8 10 -22
12 -30 1 -12 -1 -11 -11 2 -7 10 -17 14 -21 10 -5 -4 -6 -2 -2 3 3 6 -6 15
-19 22 -13 6 -22 8 -19 4 2 -5 -21 0 -53 11 -31 10 -62 16 -69 14 -7 -3 -15
-1 -18 4 -4 6 11 10 34 10 23 0 41 3 41 8 0 4 -23 5 -51 3 -36 -2 -49 -7 -45
-16 6 -17 -71 -48 -78 -31 -3 6 -5 5 -6 -4 -1 -8 -19 -30 -41 -49 -22 -18 -37
-27 -33 -18 3 9 17 23 30 32 13 8 23 23 23 33 -1 15 -2 15 -6 -1 -3 -10 -15
-22 -27 -27 -16 -6 -27 -23 -36 -55 -7 -26 -16 -41 -20 -35 -5 8 -9 7 -13 -4
-4 -9 -1 -16 6 -17 9 0 9 -2 0 -6 -7 -2 -13 -14 -14 -26 0 -15 -2 -17 -6 -7
-3 8 -10 18 -16 21 -13 9 -18 139 -6 158 8 12 9 11 4 -6 -4 -14 -2 -23 4 -23
10 0 13 14 10 36 0 4 5 11 13 16 9 6 6 7 -9 3 -14 -4 -23 -2 -23 4 0 6 5 11
11 11 6 0 8 7 5 16 -5 13 -3 14 7 6 10 -8 13 -6 13 8 0 10 -4 16 -8 14 -12 -7
29 84 52 116 11 15 17 30 13 34 -3 3 -1 6 6 6 7 0 9 5 6 10 -4 7 3 9 20 6 23
-4 25 -2 21 17 -3 12 -3 16 0 10 3 -7 11 -13 17 -13z m2057 -132 c0 20 17 14
23 -9 3 -11 -1 -35 -8 -52 -14 -32 -14 -32 -15 -5 0 14 6 28 13 31 6 2 10 7 7
10 -15 16 -33 -16 -35 -60 -2 -46 -30 -121 -42 -110 -2 3 3 16 12 30 14 22 14
25 0 31 -9 3 -14 2 -11 -3 9 -14 -24 -72 -36 -65 -7 4 -8 2 -4 -5 4 -6 13 -8
19 -4 7 4 6 0 -2 -10 -7 -9 -10 -17 -6 -17 5 0 -3 -9 -16 -21 -13 -11 -24 -26
-24 -32 0 -7 -11 -24 -24 -37 -13 -14 -20 -19 -16 -11 5 9 4 12 -3 7 -7 -4
-12 -12 -12 -18 0 -6 -7 -20 -17 -30 -18 -21 -41 -25 -24 -5 8 11 6 13 -12 11
-12 -1 -24 -3 -26 -3 -2 -1 3 -9 12 -19 15 -17 15 -19 -3 -35 -11 -9 -25 -17
-30 -17 -6 0 -23 -8 -38 -17 -22 -14 -25 -15 -15 -2 10 13 10 16 -2 16 -7 0
-14 -3 -13 -6 3 -27 -8 -40 -49 -59 -27 -11 -62 -20 -80 -18 -18 1 -30 -1 -27
-6 3 -5 15 -6 27 -3 19 5 20 5 4 -5 -9 -6 -27 -8 -38 -5 -13 5 -19 3 -15 -3 3
-5 -3 -12 -13 -15 -14 -3 -18 1 -18 19 0 15 4 21 11 17 6 -4 3 4 -7 17 -10 14
-20 33 -24 43 -3 9 -12 17 -20 17 -8 0 -13 3 -11 8 2 4 -9 19 -24 34 -15 15
-28 22 -28 17 0 -5 -9 -4 -19 3 -11 7 -18 15 -15 19 2 4 -5 18 -16 32 -11 14
-20 29 -20 34 0 9 -21 21 -82 49 -21 9 -38 22 -38 29 0 8 -19 11 -56 10 -31
-2 -50 1 -43 5 7 5 2 7 -14 7 -14 -1 -23 -5 -20 -9 7 -13 -12 -9 -26 5 -11 10
-13 9 -8 -5 4 -11 -2 -18 -19 -22 -14 -4 -46 -26 -71 -49 -26 -23 -44 -37 -40
-30 4 6 4 13 0 16 -5 2 -3 2 4 1 7 -2 14 0 17 4 3 5 -15 8 -40 8 -33 -1 -43
-4 -39 -14 3 -8 5 -20 5 -28 0 -9 5 -12 10 -9 6 4 8 16 5 28 -2 12 -2 16 1 9
3 -6 10 -9 16 -6 6 4 8 -2 3 -16 -5 -17 -4 -21 5 -15 8 5 11 4 7 -2 -11 -18
-46 -22 -58 -7 -13 16 -43 19 -34 4 4 -6 11 -8 16 -5 5 3 6 -2 3 -12 -4 -14
-3 -15 4 -4 7 10 11 10 17 1 4 -6 14 -9 24 -6 14 5 14 4 -1 -7 -10 -8 -15 -17
-11 -20 3 -4 -1 -7 -10 -7 -11 0 -14 -5 -10 -17 4 -12 -1 -9 -14 7 -11 13 -18
31 -15 38 3 8 0 17 -7 21 -19 12 -2 43 20 36 11 -4 19 -2 19 4 0 6 -12 11 -27
11 -20 0 -24 3 -14 9 11 7 13 24 9 68 -3 32 -4 52 -1 46 3 -7 9 -13 14 -13 5
0 4 12 -2 26 -5 15 -7 29 -4 32 3 3 5 1 5 -4 0 -17 269 -17 405 1 71 9 173 17
226 18 54 1 92 5 86 9 -9 5 -8 8 3 8 16 1 105 13 213 30 37 5 78 17 91 25 12
8 25 12 29 9 6 -6 136 34 151 48 6 4 13 2 18 -5 6 -9 8 -9 8 1z m-1722 -148
c32 -30 27 -38 -5 -9 -16 13 -30 25 -32 27 -2 1 0 2 5 2 6 0 20 -9 32 -20z
m469 -132 c-3 -7 -5 -2 -5 12 0 14 2 19 5 13 2 -7 2 -19 0 -25z"/>
<path d="M7048 10019 c-144 -34 -293 -166 -382 -339 -89 -173 -119 -303 -119
-515 -1 -224 39 -394 136 -579 57 -108 185 -239 278 -284 354 -170 714 150
788 701 62 455 -149 909 -468 1007 -67 21 -167 25 -233 9z m161 -393 c96 -50
171 -227 186 -437 16 -208 -51 -411 -161 -496 -52 -39 -120 -38 -171 3 -48 39
-98 121 -124 204 -44 141 -35 383 20 542 53 153 158 231 250 184z"/>
<path d="M5800 10041 c0 -9 30 -24 36 -18 2 1 -6 8 -16 15 -11 7 -20 8 -20 3z"/>
<path d="M5960 9941 c0 -5 5 -13 10 -16 6 -3 10 -2 10 4 0 5 -4 13 -10 16 -5
3 -10 2 -10 -4z"/>
<path d="M6020 9890 c0 -5 5 -10 10 -10 6 0 10 5 10 10 0 6 -4 10 -10 10 -5 0
-10 -4 -10 -10z"/>
<path d="M6100 9817 c0 -8 7 -17 15 -21 8 -3 15 -2 15 3 0 5 -7 14 -15 21 -12
10 -15 10 -15 -3z"/>
<path d="M6180 9750 c0 -5 5 -10 10 -10 6 0 10 5 10 10 0 6 -4 10 -10 10 -5 0
-10 -4 -10 -10z"/>
<path d="M6403 9492 c-1 -22 0 -24 9 -8 6 10 6 22 2 26 -5 5 -10 -3 -11 -18z"/>
<path d="M4417 9466 c-4 -10 -5 -21 -2 -24 9 -9 17 6 13 25 -3 17 -4 17 -11
-1z"/>
<path d="M5665 9450 c-3 -5 -1 -10 4 -10 6 0 11 5 11 10 0 6 -2 10 -4 10 -3 0
-8 -4 -11 -10z"/>
<path d="M6417 9449 c7 -7 15 -10 18 -7 3 3 -2 9 -12 12 -14 6 -15 5 -6 -5z"/>
<path d="M6406 9414 c-3 -9 -5 -30 -5 -47 l1 -32 7 35 c4 20 11 41 15 48 4 7
3 12 -2 12 -6 0 -13 -7 -16 -16z"/>
<path d="M4665 9410 c3 -5 11 -10 16 -10 6 0 7 5 4 10 -3 6 -11 10 -16 10 -6
0 -7 -4 -4 -10z"/>
<path d="M4372 9385 c-10 -12 -10 -19 -2 -33 11 -16 11 -16 6 2 -5 13 -2 17 8
13 10 -4 12 0 9 14 -6 22 -5 22 -21 4z"/>
<path d="M6420 9381 c0 -5 7 -11 14 -14 10 -4 13 -1 9 9 -6 15 -23 19 -23 5z"/>
<path d="M5430 9370 c-13 -8 -12 -10 3 -10 9 0 17 5 17 10 0 12 -1 12 -20 0z"/>
<path d="M4386 9333 c-4 -9 -3 -20 1 -24 4 -4 9 3 9 17 2 28 -1 31 -10 7z"/>
<path d="M4340 9329 c0 -5 5 -7 10 -4 6 3 10 8 10 11 0 2 -4 4 -10 4 -5 0 -10
-5 -10 -11z"/>
<path d="M4352 9304 c-7 -8 -8 -14 -3 -14 10 0 25 19 20 25 -2 1 -10 -3 -17
-11z"/>
<path d="M6160 9029 c0 -5 5 -7 10 -4 6 3 10 8 10 11 0 2 -4 4 -10 4 -5 0 -10
-5 -10 -11z"/>
<path d="M5446 7824 c-10 -25 -7 -46 5 -39 6 4 8 13 5 21 -4 11 1 13 22 9 15
-3 20 -2 12 1 -8 4 -20 11 -26 16 -8 5 -14 3 -18 -8z"/>
<path d="M5040 7801 c0 -4 11 -6 25 -3 14 2 25 6 25 8 0 2 -11 4 -25 4 -14 0
-25 -4 -25 -9z"/>
<path d="M5158 7803 c23 -2 61 -2 85 0 23 2 4 4 -43 4 -47 0 -66 -2 -42 -4z"/>
<path d="M5338 7793 c7 -3 16 -2 19 1 4 3 -2 6 -13 5 -11 0 -14 -3 -6 -6z"/>
<path d="M5470 7785 c-7 -8 -8 -15 -2 -15 5 0 15 7 22 15 7 8 8 15 2 15 -5 0
-15 -7 -22 -15z"/>
<path d="M5068 7753 c7 -3 16 -2 19 1 4 3 -2 6 -13 5 -11 0 -14 -3 -6 -6z"/>
<path d="M5108 7753 c6 -2 18 -2 25 0 6 3 1 5 -13 5 -14 0 -19 -2 -12 -5z"/>
<path d="M5158 7753 c7 -3 16 -2 19 1 4 3 -2 6 -13 5 -11 0 -14 -3 -6 -6z"/>
<path d="M3641 6877 c2 -1 13 -9 24 -17 19 -14 19 -14 6 3 -7 9 -18 17 -24 17
-6 0 -8 -1 -6 -3z"/>
<path d="M3750 6675 c0 -8 4 -15 10 -15 5 0 7 7 4 15 -4 8 -8 15 -10 15 -2 0
-4 -7 -4 -15z"/>
<path d="M3795 6680 c3 -5 11 -10 16 -10 6 0 7 5 4 10 -3 6 -11 10 -16 10 -6
0 -7 -4 -4 -10z"/>
<path d="M3795 6640 c3 -5 8 -10 11 -10 2 0 4 5 4 10 0 6 -5 10 -11 10 -5 0
-7 -4 -4 -10z"/>
<path d="M3746 6611 c-4 -5 -3 -16 0 -24 3 -8 1 -18 -5 -22 -6 -3 -11 -13 -11
-21 0 -8 4 -13 9 -9 5 3 11 -3 14 -12 2 -10 4 8 3 39 -1 61 -2 63 -10 49z"/>
<path d="M4290 6530 c0 -5 5 -10 11 -10 5 0 7 5 4 10 -3 6 -8 10 -11 10 -2 0
-4 -4 -4 -10z"/>
<path d="M3727 6513 c-4 -3 -7 -11 -7 -17 0 -6 5 -5 12 2 6 6 9 14 7 17 -3 3
-9 2 -12 -2z"/>
<path d="M3270 6495 c-8 -9 -5 -15 7 -19 10 -4 14 -4 10 0 -4 4 1 12 9 19 15
11 15 12 0 12 -9 0 -21 -6 -26 -12z"/>
<path d="M3691 6494 c0 -11 3 -14 6 -6 3 7 2 16 -1 19 -3 4 -6 -2 -5 -13z"/>
<path d="M3650 6460 c10 -6 11 -10 3 -10 -7 0 -13 -6 -13 -14 0 -8 -6 -17 -12
-20 -7 -3 1 -3 17 0 24 5 27 3 15 -6 -12 -9 -12 -11 -1 -8 8 2 15 11 17 20 1
12 -3 15 -14 10 -14 -5 -15 -3 -5 10 13 15 8 28 -11 28 -6 0 -4 -5 4 -10z"/>
<path d="M4107 6433 c-4 -3 -7 -11 -7 -17 0 -6 5 -5 12 2 6 6 9 14 7 17 -3 3
-9 2 -12 -2z"/>
<path d="M4320 6409 c0 -16 4 -28 9 -25 8 5 3 56 -5 56 -2 0 -4 -14 -4 -31z"/>
<path d="M3280 6421 c0 -6 4 -13 10 -16 6 -3 7 1 4 9 -7 18 -14 21 -14 7z"/>
<path d="M3544 6289 c-10 -17 13 -36 27 -22 12 12 4 33 -11 33 -5 0 -12 -5
-16 -11z"/>
<path d="M4420 6222 c0 -5 7 -15 15 -22 8 -7 15 -8 15 -2 0 5 -7 15 -15 22 -8
7 -15 8 -15 2z"/>
<path d="M4409 6188 c-1 -2 -2 -18 -4 -37 -2 -26 -1 -31 7 -18 5 10 6 22 3 27
-3 6 -1 10 4 10 6 0 11 -7 11 -16 0 -8 5 -12 10 -9 16 10 12 23 -10 35 -11 6
-20 9 -21 8z"/>
<path d="M4427 6123 c-4 -3 -7 -11 -7 -17 0 -6 5 -5 12 2 6 6 9 14 7 17 -3 3
-9 2 -12 -2z"/>
<path d="M4424 6075 c-3 -8 -4 -20 -1 -27 3 -7 6 -3 6 9 1 12 7 24 14 26 9 4
9 6 -1 6 -7 1 -15 -6 -18 -14z"/>
<path d="M3680 5970 c0 -5 7 -10 15 -10 8 0 15 5 15 10 0 6 -7 10 -15 10 -8 0
-15 -4 -15 -10z"/>
<path d="M4412 5735 c0 -16 2 -22 5 -12 2 9 2 23 0 30 -3 6 -5 -1 -5 -18z"/>
<path d="M4438 5689 c-3 -8 0 -23 8 -34 16 -21 18 -5 5 29 -6 16 -9 17 -13 5z"/>
<path d="M4407 5659 c4 -13 8 -18 11 -10 2 7 -1 18 -6 23 -8 8 -9 4 -5 -13z"/>
<path d="M4400 5470 c0 -5 5 -10 11 -10 5 0 7 5 4 10 -3 6 -8 10 -11 10 -2 0
-4 -4 -4 -10z"/>
<path d="M4380 5456 c0 -9 -5 -16 -12 -16 -6 0 -9 -2 -6 -5 3 -3 15 -2 27 3
20 7 21 9 7 21 -14 11 -16 11 -16 -3z"/>
<path d="M4355 5380 c-9 -17 -11 -30 -5 -30 5 0 10 5 10 12 0 6 7 20 17 30 9
10 11 18 5 18 -6 0 -18 -13 -27 -30z"/>
<path d="M3114 6506 c0 -13 4 -22 9 -19 10 6 9 31 -2 37 -5 3 -8 -5 -7 -18z"/>
<path d="M3075 6399 c-4 -5 -4 -13 -1 -16 3 -4 6 0 7 8 0 8 4 6 9 -6 7 -16 9
-17 9 -3 1 21 -15 32 -24 17z"/>
<path d="M2873 6097 c0 -7 9 -14 19 -14 16 -2 16 0 4 13 -18 17 -23 18 -23 1z"/>
<path d="M2756 6057 c3 -10 9 -15 12 -12 3 3 0 11 -7 18 -10 9 -11 8 -5 -6z"/>
<path d="M2784 6033 c-4 -16 -10 -30 -14 -33 -4 -3 -2 -11 5 -17 11 -10 14 -9
13 5 0 9 3 29 7 45 4 15 5 27 1 27 -3 0 -9 -12 -12 -27z"/>
<path d="M2945 5827 c8 -4 29 -4 47 1 32 9 31 9 -14 8 -28 0 -41 -4 -33 -9z"/>
<path d="M3055 5823 c11 -3 24 -9 30 -14 5 -5 16 -9 24 -9 11 0 10 4 -5 15
-10 8 -30 14 -44 14 -20 -1 -21 -2 -5 -6z"/>
<path d="M3068 5782 c19 -21 27 -20 19 3 -4 8 -13 15 -22 15 -13 0 -12 -3 3
-18z"/>
<path d="M3185 5751 c-3 -5 -2 -12 3 -15 5 -3 9 1 9 9 0 17 -3 19 -12 6z"/>
<path d="M3310 5585 c7 -8 16 -12 21 -9 16 9 10 20 -12 21 -17 2 -18 -1 -9
-12z"/>
<path d="M3330 5560 c0 -5 5 -10 10 -10 6 0 10 5 10 10 0 6 -4 10 -10 10 -5 0
-10 -4 -10 -10z"/>
<path d="M3305 5550 c3 -5 8 -10 11 -10 2 0 4 5 4 10 0 6 -5 10 -11 10 -5 0
-7 -4 -4 -10z"/>
<path d="M3320 5523 c0 -5 5 -15 11 -23 9 -13 10 -12 5 2 -3 12 -1 15 9 11 8
-3 13 -8 11 -12 -3 -4 -1 -13 5 -21 6 -11 9 -9 9 11 0 15 -7 29 -16 33 -21 8
-34 8 -34 -1z"/>
<path d="M3350 5071 c0 -5 6 -14 14 -20 12 -10 13 -8 9 8 -5 21 -23 30 -23 12z"/>
<path d="M3340 5010 c-6 -11 -9 -31 -7 -43 4 -20 4 -19 6 4 0 14 6 30 13 37 6
6 9 14 6 18 -4 3 -12 -4 -18 -16z"/>
<path d="M6968 5303 c7 -3 16 -2 19 1 4 3 -2 6 -13 5 -11 0 -14 -3 -6 -6z"/>
<path d="M5434 5180 c-1 -19 4 -30 12 -30 7 0 11 -6 9 -13 -3 -6 5 -18 17 -26
18 -11 23 -11 32 1 6 8 18 17 26 21 13 5 13 6 0 6 -9 1 -21 -4 -28 -11 -9 -9
-12 -9 -12 0 0 6 -7 9 -15 5 -9 -3 -15 -2 -13 3 2 9 -18 74 -24 74 -2 0 -3
-14 -4 -30z"/>
<path d="M5515 5100 c-3 -6 1 -7 9 -4 18 7 21 14 7 14 -6 0 -13 -4 -16 -10z"/>
<path d="M7142 5094 c10 -10 20 -15 24 -12 3 4 -5 12 -18 18 -22 12 -22 12 -6
-6z"/>
<path d="M5555 5060 c3 -5 11 -10 16 -10 6 0 7 5 4 10 -3 6 -11 10 -16 10 -6
0 -7 -4 -4 -10z"/>
<path d="M7434 5215 c-9 -23 3 -45 25 -45 23 0 32 18 19 43 -11 21 -37 22 -44
2z"/>
<path d="M7224 5215 c-9 -23 4 -47 23 -43 22 4 30 38 11 49 -19 13 -28 11 -34
-6z"/>
<path d="M5172 4667 c-5 -6 -17 -26 -26 -44 -12 -24 -13 -33 -3 -36 9 -4 8 -8
-3 -16 -19 -13 0 -14 20 -1 12 8 13 11 1 19 -9 6 -11 16 -5 32 l8 24 7 -25 c7
-25 7 -25 8 -2 1 13 5 21 9 18 4 -2 8 4 9 14 2 24 -12 34 -25 17z m10 -19 c-7
-7 -12 -8 -12 -2 0 14 12 26 19 19 2 -3 -1 -11 -7 -17z"/>
<path d="M5300 4670 c0 -5 7 -10 16 -10 8 0 12 5 9 10 -3 6 -10 10 -16 10 -5
0 -9 -4 -9 -10z"/>
<path d="M5191 4603 c-1 -6 -4 -20 -7 -30 -5 -17 -5 -17 6 0 6 10 9 23 6 30
-3 9 -5 9 -5 0z"/>
<path d="M5290 4533 c-13 -15 -12 -16 4 -10 10 4 34 7 53 7 44 0 41 5 -7 13
-26 5 -39 2 -50 -10z"/>
<path d="M5121 4462 c-6 -12 -5 -25 5 -42 10 -18 13 -20 14 -8 0 9 -4 19 -10
23 -15 9 0 33 23 38 l22 4 -22 2 c-12 0 -27 -7 -32 -17z"/>
<path d="M5145 4450 c-3 -5 -1 -10 4 -10 6 0 11 5 11 10 0 6 -2 10 -4 10 -3 0
-8 -4 -11 -10z"/>
<path d="M5100 4400 c-9 -6 -10 -10 -3 -10 6 0 15 5 18 10 8 12 4 12 -15 0z"/>
<path d="M5125 4380 c3 -5 8 -10 11 -10 2 0 4 5 4 10 0 6 -5 10 -11 10 -5 0
-7 -4 -4 -10z"/>
<path d="M5081 4363 c0 -5 4 -17 9 -28 8 -18 9 -17 9 8 1 15 -3 27 -9 27 -5 0
-10 -3 -9 -7z"/>
<path d="M7015 4510 c-3 -5 1 -10 9 -10 9 0 16 5 16 10 0 6 -4 10 -9 10 -6 0
-13 -4 -16 -10z"/>
<path d="M7217 4466 c-4 -10 -7 -25 -6 -34 0 -11 4 -9 10 7 5 13 8 29 6 35 -2
5 -6 2 -10 -8z"/>
<path d="M6408 4433 c7 -3 16 -2 19 1 4 3 -2 6 -13 5 -11 0 -14 -3 -6 -6z"/>
<path d="M6166 4384 c-8 -21 3 -37 20 -30 8 3 14 1 14 -4 0 -5 16 0 35 12 20
11 34 23 31 26 -3 3 -12 -1 -21 -8 -13 -11 -14 -10 -8 6 6 17 5 18 -11 5 -14
-12 -22 -12 -36 -3 -14 9 -19 8 -24 -4z m24 -14 c0 -5 -4 -10 -10 -10 -5 0
-10 5 -10 10 0 6 5 10 10 10 6 0 10 -4 10 -10z"/>
<path d="M7165 4380 c-3 -5 1 -10 10 -10 9 0 13 5 10 10 -3 6 -8 10 -10 10 -2
0 -7 -4 -10 -10z"/>
<path d="M6485 4370 c-20 -8 -20 -9 1 -9 11 -1 29 -10 39 -21 25 -27 31 -25
31 10 0 26 -3 30 -25 29 -14 0 -35 -4 -46 -9z m55 -10 c8 -5 11 -12 8 -16 -4
-3 -14 1 -23 10 -18 17 -9 21 15 6z"/>
<path d="M6168 4333 c7 -3 16 -2 19 1 4 3 -2 6 -13 5 -11 0 -14 -3 -6 -6z"/>
<path d="M6583 4305 c-3 -9 -3 -18 -1 -21 3 -3 8 4 11 16 6 23 -1 27 -10 5z"/>
<path d="M7150 4310 c0 -5 -8 -7 -17 -4 -14 5 -15 4 -4 -4 16 -12 44 -4 35 9
-7 12 -14 11 -14 -1z"/>
<path d="M6610 4285 c0 -8 4 -15 10 -15 5 0 7 7 4 15 -4 8 -8 15 -10 15 -2 0
-4 -7 -4 -15z"/>
<path d="M6068 4213 c7 -3 16 -2 19 1 4 3 -2 6 -13 5 -11 0 -14 -3 -6 -6z"/>
<path d="M6883 4125 c-3 -9 -3 -19 1 -22 3 -4 6 1 6 10 0 8 10 18 23 20 l22 4
-23 2 c-12 0 -25 -6 -29 -14z"/>
<path d="M10786 13241 c-4 -5 -3 -16 0 -25 3 -9 1 -16 -5 -16 -6 0 -11 6 -11
13 0 8 -4 7 -10 -3 -11 -17 -13 -101 -2 -84 4 6 15 13 25 17 15 5 18 16 16 57
-3 52 -4 56 -13 41z"/>
<path d="M10772 12970 c0 -19 2 -27 5 -17 2 9 2 25 0 35 -3 9 -5 1 -5 -18z"/>
<path d="M5145 10461 c21 -24 75 -66 75 -58 0 3 -21 22 -47 43 -27 21 -39 28
-28 15z"/>
<path d="M5230 10396 c0 -3 9 -10 20 -16 11 -6 20 -8 20 -6 0 3 -9 10 -20 16
-11 6 -20 8 -20 6z"/>
<path d="M10706 4653 c-3 -25 -6 -69 -6 -97 0 -47 4 -55 50 -106 l50 -55 -1
120 0 120 -43 32 -43 32 -7 -46z"/>
<path d="M10690 4129 l0 -142 35 -52 c38 -58 59 -105 50 -114 -3 -3 -10 1 -15
9 -9 13 -10 13 -10 0 0 -10 -3 -11 -8 -4 -7 11 -45 34 -56 34 -11 0 -7 -618 4
-625 6 -3 10 -14 10 -23 0 -15 -2 -15 -10 -2 -7 11 -10 7 -12 -20 -5 -104 -4
-208 4 -228 9 -27 59 -92 71 -92 4 0 7 48 7 108 0 59 7 247 15 417 9 171 15
343 14 383 -1 40 1 75 4 79 4 3 7 79 7 169 l0 162 -49 41 c-27 23 -52 41 -55
41 -3 0 -6 -64 -6 -141z"/>
<path d="M1206 3885 c4 -8 7 -15 9 -15 2 0 5 7 9 15 3 9 0 15 -9 15 -9 0 -12
-6 -9 -15z"/>
<path d="M1191 3864 c0 -11 3 -14 6 -6 3 7 2 16 -1 19 -3 4 -6 -2 -5 -13z"/>
<path d="M1257 3550 c-48 -49 -87 -93 -87 -99 0 -5 -4 -11 -9 -13 -5 -1 -12
-34 -15 -73 -3 -38 -3 -63 1 -55 3 8 9 17 13 20 6 4 61 87 158 236 15 24 33
66 30 70 -2 1 -42 -37 -91 -86z"/>
<path d="M9221 3493 c17 -32 39 -69 49 -83 9 -14 20 -32 23 -40 3 -8 6 1 6 20
1 27 -10 49 -44 95 -59 78 -74 82 -34 8z"/>
<path d="M9130 3425 c0 -3 9 -67 21 -143 18 -122 25 -147 66 -227 26 -49 64
-125 86 -168 22 -43 42 -75 45 -73 2 3 -3 91 -13 197 -13 143 -22 197 -34 211
-9 11 -27 32 -39 46 -13 15 -37 46 -52 70 -17 26 -30 38 -33 30 -3 -7 -6 -3
-6 10 -1 13 -5 20 -11 17 -5 -3 -10 1 -10 9 0 8 -4 18 -10 21 -5 3 -10 4 -10
0z"/>
<path d="M2411 3259 c-7 -16 -11 -33 -7 -36 3 -3 10 7 16 22 6 15 13 32 16 36
3 5 2 9 -3 9 -4 0 -14 -14 -22 -31z"/>
<path d="M3185 3229 c-94 -6 -144 -29 -197 -87 -61 -67 -63 -83 -63 -423 l0
-305 30 -60 c36 -70 98 -117 178 -133 37 -8 755 -11 2447 -9 l2395 3 45 21
c55 26 106 76 131 129 17 36 19 69 19 355 0 284 -2 319 -19 355 -27 59 -66
101 -119 127 l-47 23 -2360 5 c-1298 3 -2396 2 -2440 -1z m607 -315 c28 -8 76
-71 89 -116 6 -24 9 -71 6 -105 -8 -107 -58 -163 -149 -170 -39 -3 -62 1 -88
15 -73 40 -107 158 -77 263 31 105 107 144 219 113z m350 0 c28 -8 76 -71 89
-116 24 -91 -6 -209 -65 -252 -39 -30 -143 -30 -182 0 -39 29 -65 84 -71 151
-7 75 10 136 50 180 44 47 100 59 179 37z m1484 -5 c36 -11 99 -73 113 -112
26 -69 2 -176 -50 -224 -62 -56 -165 -69 -240 -30 -123 65 -145 229 -44 327
55 53 131 67 221 39z m-1176 -184 l0 -195 -60 0 -60 0 0 134 0 135 -31 -9
c-33 -10 -31 -11 -48 52 l-9 37 56 20 c32 11 78 20 105 20 l47 1 0 -195z m664
143 c8 -29 23 -84 32 -122 l17 -70 32 120 31 119 63 3 c56 3 62 1 57 -15 -3
-10 -30 -96 -61 -192 -30 -96 -55 -176 -55 -178 0 -2 -30 -3 -66 -1 l-66 3
-59 185 c-32 102 -59 188 -59 193 0 4 27 7 59 7 l60 0 15 -52z m945 -137 c34
-104 61 -192 61 -195 0 -3 -27 -6 -60 -6 -55 0 -60 2 -66 25 -6 23 -11 25 -60
25 -49 0 -54 -2 -60 -25 -6 -23 -11 -25 -65 -25 -32 0 -59 3 -59 8 0 6 99 325
115 370 3 8 26 12 69 12 l65 0 60 -189z m328 163 c66 -48 78 -133 27 -194
l-26 -30 36 -65 c20 -36 36 -68 36 -70 0 -3 -27 -5 -60 -5 l-60 0 -30 60 c-17
33 -35 60 -40 60 -6 0 -10 -27 -10 -60 l0 -60 -60 0 -60 0 0 188 c0 104 3 192
8 196 4 5 53 6 109 4 83 -3 107 -7 130 -24z m389 -144 c29 -91 56 -177 59
-192 l7 -28 -60 0 c-55 0 -60 2 -66 25 -6 23 -11 25 -60 25 -49 0 -54 -2 -60
-25 -6 -23 -11 -25 -66 -25 -33 0 -60 2 -60 4 0 3 44 144 107 339 l15 48 65
-3 66 -3 53 -165z m-3400 100 c-5 -35 -4 -40 13 -40 14 0 20 10 25 40 6 39 7
40 47 40 l42 0 -7 -40 c-6 -38 -5 -40 19 -40 26 0 29 -9 19 -47 -4 -15 -14
-23 -29 -23 -13 0 -25 -7 -29 -15 -4 -11 2 -15 20 -15 23 0 25 -3 22 -37 -3
-33 -7 -38 -30 -41 -21 -3 -28 -10 -35 -40 -8 -34 -12 -37 -47 -40 l-38 -3 4
40 c3 33 0 41 -13 41 -11 0 -20 -13 -26 -37 -8 -35 -12 -38 -47 -41 l-39 -3 6
40 c5 38 3 41 -19 41 -19 0 -24 5 -24 24 0 40 11 56 36 56 15 0 24 6 24 15 0
9 -9 15 -23 15 -20 0 -23 4 -19 35 4 31 8 35 32 35 25 0 29 4 35 40 7 39 8 40
47 40 l41 0 -7 -40z m1464 -150 l0 -50 -110 0 -110 0 0 50 0 50 110 0 110 0 0
-50z"/>
<path d="M3701 2801 c-16 -16 -21 -34 -21 -77 0 -67 13 -94 44 -94 31 0 44 17
51 65 7 51 -5 94 -32 112 -19 13 -24 12 -42 -6z"/>
<path d="M4050 2802 c-19 -15 -23 -29 -23 -73 0 -68 15 -99 48 -99 32 0 48 31
47 96 0 59 -4 69 -32 84 -13 7 -24 5 -40 -8z"/>
<path d="M5483 2788 c-77 -86 30 -208 120 -138 46 36 45 111 -2 147 -28 21
-95 16 -118 -9z"/>
<path d="M5921 2735 c-16 -57 -14 -65 15 -65 24 0 25 2 18 33 -15 70 -21 75
-33 32z"/>
<path d="M6260 2776 c0 -37 6 -41 48 -30 18 5 22 13 20 33 -2 21 -9 27 -35 29
-32 3 -33 2 -33 -32z"/>
<path d="M6641 2727 c-14 -60 -15 -57 15 -57 25 0 26 2 19 38 -12 63 -21 68
-34 19z"/>
<path d="M3356 2725 c-4 -10 1 -15 14 -15 11 0 20 7 20 15 0 8 -6 15 -14 15
-8 0 -16 -7 -20 -15z"/>
<path d="M1312 3138 c-6 -6 -12 -17 -12 -24 0 -7 -3 -14 -8 -16 -4 -1 -30 -32
-57 -68 -28 -36 -52 -67 -56 -70 -27 -24 -59 -83 -64 -115 -5 -43 -38 -766
-55 -1215 -9 -266 -22 -746 -36 -1342 l-6 -288 26 0 c22 0 26 5 26 28 0 15 7
101 15 192 8 91 26 300 40 465 31 370 32 382 50 585 8 91 33 379 55 640 22
261 49 579 60 705 47 558 47 548 22 523z"/>
<path d="M9204 2935 c25 -159 225 -1556 301 -2110 71 -515 67 -486 71 -482 2
2 -14 199 -36 438 -22 239 -53 580 -70 759 -114 1245 -109 1202 -134 1235 -13
16 -49 68 -81 115 -56 82 -58 84 -51 45z"/>
<path d="M2612 2860 c-7 -11 -12 -26 -12 -34 0 -8 -3 -16 -7 -18 -8 -3 -34
-54 -84 -161 l-22 -49 17 -131 c18 -145 20 -158 70 -532 35 -260 74 -562 141
-1090 90 -708 105 -829 105 -837 0 -4 9 -8 20 -8 12 0 20 7 20 18 0 9 -20 262
-45 562 -25 300 -75 902 -110 1339 -36 437 -67 797 -70 799 -3 3 -12 -3 -20
-14 -15 -19 -15 -19 -30 0 -10 13 -12 23 -5 30 5 5 10 23 10 38 0 15 4 28 8
28 9 0 36 69 30 75 -2 2 -9 -5 -16 -15z"/>
<path d="M10683 2188 c7 -500 25 -1075 36 -1153 6 -41 27 1364 23 1514 -1 43
-31 91 -55 91 -7 0 -8 -157 -4 -452z"/>
<path d="M5840 2047 c0 -8 13 -164 30 -348 45 -510 43 -455 15 -473 -14 -9
-28 -28 -31 -42 -6 -22 -11 -25 -53 -25 -244 2 -293 1 -310 -9 -25 -13 -101 8
-101 27 0 31 -39 53 -94 53 -52 0 -78 -12 -88 -40 -2 -7 -14 -7 -36 1 -72 25
-169 -10 -212 -76 l-18 -27 -17 36 c-35 73 -110 116 -202 116 -74 -1 -131 -26
-173 -79 l-33 -40 -21 27 c-95 124 -259 128 -361 10 -34 -41 -37 -42 -47 -23
-17 30 -65 72 -98 87 -17 7 -30 17 -30 23 -1 5 0 88 0 183 l1 172 -26 0 -25 0
0 -175 0 -175 -27 -5 c-88 -18 -110 -29 -153 -75 l-46 -48 -33 39 c-45 54 -99
80 -169 80 -31 0 -70 -4 -85 -10 -85 -33 -147 -123 -147 -216 0 -214 262 -309
402 -146 l33 39 33 -39 c35 -41 97 -79 131 -79 55 0 52 42 37 -617 -4 -161 -3
-173 14 -173 16 0 18 20 25 273 4 149 9 283 10 297 2 14 4 69 4 122 l1 96 33
11 c36 12 96 63 115 96 10 19 13 18 47 -23 94 -110 241 -115 344 -12 17 18 31
36 31 42 0 6 18 -10 40 -34 69 -79 182 -103 274 -58 46 22 106 83 106 107 0
22 14 15 35 -17 24 -36 106 -80 150 -80 41 0 97 17 106 32 5 8 36 11 101 9 57
-1 104 2 120 9 20 9 31 9 48 0 13 -7 54 -12 91 -11 38 0 69 -3 69 -8 0 -16 60
-53 101 -62 53 -12 114 5 151 41 18 19 30 25 33 17 5 -13 28 -335 47 -649 l12
-198 59 0 60 0 -6 118 c-4 64 -8 258 -9 430 l-3 313 175 4 c96 2 184 4 195 4
11 0 64 -2 118 -5 76 -4 103 -2 121 9 19 13 26 13 47 2 19 -11 100 -14 368
-13 322 1 345 2 362 19 11 11 19 33 19 53 0 25 6 38 25 50 22 15 25 23 25 80
0 91 -12 99 -137 96 -181 -5 -213 -2 -213 18 0 32 -33 52 -86 52 -51 0 -94
-20 -94 -45 0 -8 -5 -17 -12 -21 -6 -4 -98 -6 -204 -5 l-194 1 -25 26 c-30 30
-58 28 -130 -5 -41 -20 -98 -25 -242 -23 -76 2 -83 4 -83 22 0 12 -11 31 -24
43 -26 24 -22 -26 -47 547 -6 140 -15 259 -19 263 -4 5 -6 -110 -3 -256 3
-236 2 -265 -13 -277 -14 -12 -16 -12 -13 5 1 11 -1 29 -5 40 -21 56 -27 78
-91 355 -14 63 -31 125 -37 138 -12 24 -38 30 -38 9z m-2275 -886 c37 -21 72
-72 81 -118 21 -114 -94 -223 -206 -193 -79 21 -130 86 -130 165 0 131 139
211 255 146z m367 19 c77 -22 128 -87 128 -165 0 -55 -18 -93 -60 -129 -59
-49 -148 -53 -209 -9 -33 24 -71 98 -71 138 0 40 38 114 71 138 22 15 54 27
99 36 3 0 22 -4 42 -9z m458 -15 c105 -53 121 -202 31 -278 -144 -120 -351 46
-258 207 48 85 141 114 227 71z m372 15 c77 -22 128 -87 128 -165 0 -181 -246
-235 -321 -71 -23 52 -23 90 0 142 25 56 72 88 151 103 3 0 22 -4 42 -9z
m1218 -29 c0 -25 -25 -44 -49 -36 -29 9 -33 33 -11 55 16 16 25 18 40 10 11
-6 20 -19 20 -29z m90 -101 l0 -130 -35 0 -35 0 0 130 0 130 35 0 35 0 0 -130z
m-740 80 c0 -36 2 -39 22 -31 75 28 134 -59 93 -139 -18 -35 -31 -39 -117 -39
l-68 0 0 124 0 125 35 0 c34 0 35 -1 35 -40z m1810 -84 l0 -124 -75 0 c-68 -1
-76 2 -95 25 -28 35 -26 94 3 128 23 27 47 33 85 21 20 -7 22 -4 22 33 0 39 2
41 30 41 l30 0 0 -124z m-590 79 c0 -18 5 -25 20 -25 16 0 20 -7 20 -31 0 -22
-5 -32 -20 -36 -27 -7 -26 -43 1 -50 15 -4 19 -12 17 -32 -2 -21 -9 -27 -35
-29 -40 -4 -73 26 -73 68 0 41 -29 70 -58 57 l-22 -10 22 -11 c29 -15 36 -61
12 -87 -24 -27 -104 -26 -128 0 -17 19 -17 20 10 34 27 14 27 14 6 26 -28 15
-29 61 -3 85 11 10 36 18 56 18 20 0 45 -8 56 -18 17 -16 19 -16 19 -1 0 10 7
17 15 17 8 0 15 6 15 14 0 8 12 19 28 24 40 15 42 14 42 -13z m-1374 -1 c41
-20 64 -59 64 -109 0 -54 -15 -75 -54 -75 -18 0 -36 3 -40 8 -4 4 -24 7 -44 7
-29 0 -39 5 -51 28 -14 24 -14 30 -1 55 14 24 22 27 73 29 l57 3 0 -43 c0 -52
15 -80 30 -57 29 44 -2 122 -55 140 -68 22 -130 -13 -141 -81 -12 -73 35 -123
115 -124 51 -1 63 -18 16 -23 -115 -11 -192 102 -135 196 35 57 104 76 166 46z
m1706 -25 l48 1 0 -89 0 -90 -72 0 c-83 0 -104 11 -118 60 -14 49 4 98 43 114
18 7 36 11 41 8 5 -4 31 -5 58 -4z m451 -30 c26 -32 22 -94 -8 -124 -33 -34
-93 -34 -132 -1 -52 45 -26 148 41 158 33 6 79 -10 99 -33z m-1663 -59 l0 -89
-76 0 c-69 0 -78 3 -100 26 -29 32 -31 76 -4 120 19 32 20 32 100 32 l80 0 0
-89z m210 -13 c-1 -114 -8 -132 -61 -147 -38 -11 -76 -4 -102 19 -18 15 -17
16 10 38 15 13 23 23 16 23 -26 0 -53 43 -53 84 0 65 27 85 116 85 l74 0 0
-102z m100 13 l0 -90 -35 0 -35 0 0 90 0 90 35 0 35 0 0 -90z m180 43 c0 -93
43 -98 45 -6 0 47 1 48 33 51 l32 3 0 -90 0 -90 -62 0 c-35 1 -71 3 -80 5 -21
6 -38 62 -38 127 l0 47 35 0 35 0 0 -47z m570 13 c0 -23 -6 -34 -22 -41 -19
-8 -24 -19 -26 -57 -3 -47 -4 -48 -38 -48 l-34 0 0 90 0 90 60 -2 60 -2 0 -30z
m710 22 c0 -9 3 -9 12 0 22 22 38 13 38 -21 0 -24 -6 -35 -22 -42 -19 -8 -24
-19 -26 -57 -3 -47 -4 -48 -38 -48 l-34 0 0 90 0 90 35 0 c21 0 35 -5 35 -12z"/>
<path d="M3400 1090 c-25 -25 -28 -114 -4 -148 13 -19 24 -22 78 -22 82 0 96
14 96 97 0 78 -15 93 -93 93 -44 0 -62 -5 -77 -20z m147 -16 c7 -10 13 -39 13
-65 0 -57 -23 -79 -83 -79 -66 0 -77 12 -77 85 0 77 11 87 84 82 33 -3 54 -11
63 -23z"/>
<path d="M3442 1048 c-28 -28 -7 -78 33 -78 27 0 45 18 45 45 0 27 -18 45 -45
45 -12 0 -26 -5 -33 -12z m62 -20 c8 -14 7 -21 -6 -34 -30 -30 -75 9 -48 42
16 18 39 15 54 -8z"/>
<path d="M3902 1088 c-7 -7 -12 -18 -12 -25 0 -20 -34 -16 -63 7 l-26 20 1
-40 c0 -27 8 -47 24 -65 l23 -25 -24 -6 c-14 -3 -22 -10 -19 -15 8 -14 72 -10
104 6 32 17 42 31 64 94 14 42 14 42 -11 52 -32 12 -47 11 -61 -3z"/>
<path d="M4308 1043 c-3 -83 -4 -88 -25 -91 -31 -4 -33 37 -2 45 14 4 19 12
17 27 -7 46 -88 3 -88 -46 0 -26 53 -78 80 -78 11 0 32 11 45 25 20 19 25 34
25 75 0 47 1 50 19 40 27 -14 31 -13 31 11 0 12 -8 23 -19 26 -10 2 -24 16
-30 29 -6 14 -19 24 -30 24 -18 0 -20 -8 -23 -87z"/>
<path d="M4640 1015 c0 -78 2 -85 20 -85 11 0 20 -7 20 -15 0 -8 9 -15 19 -15
10 0 21 7 25 15 3 8 15 15 28 15 12 0 35 12 50 27 24 23 28 34 28 85 l0 58
-95 0 -95 0 0 -85z m170 23 c0 -57 -19 -88 -55 -88 -11 0 -27 -6 -34 -12 -11
-10 -14 -10 -18 0 -3 6 -13 12 -24 12 -17 0 -19 8 -19 70 l0 70 75 0 75 0 0
-52z"/>
<path d="M4710 1025 c0 -14 5 -25 10 -25 6 0 10 11 10 25 0 14 -4 25 -10 25
-5 0 -10 -11 -10 -25z"/>
<path d="M4752 1025 c1 -14 6 -25 10 -25 4 0 8 11 8 25 0 14 -4 25 -10 25 -5
0 -9 -11 -8 -25z"/>
<path d="M5337 1026 c-10 -26 4 -47 27 -44 15 2 21 10 21 28 0 29 -38 41 -48
16z"/>
<path d="M7024 1026 c-9 -24 4 -48 23 -44 12 2 18 12 18 28 0 29 -32 41 -41
16z"/>
<path d="M6357 979 c7 -7 15 -10 18 -7 3 3 -2 9 -12 12 -14 6 -15 5 -6 -5z"/>
<path d="M5100 1010 c0 -5 5 -10 10 -10 6 0 10 5 10 10 0 6 -4 10 -10 10 -5 0
-10 -4 -10 -10z"/>
<path d="M6807 1026 c-10 -26 4 -47 27 -44 15 2 21 10 21 28 0 29 -38 41 -48
16z"/>
<path d="M7240 1025 c-11 -13 -11 -19 3 -33 20 -19 41 -5 35 24 -4 24 -22 28
-38 9z"/>
<path d="M5544 1025 c-9 -23 3 -45 25 -45 10 0 21 7 25 15 8 23 -4 45 -25 45
-11 0 -22 -7 -25 -15z"/>
<path d="M5760 1016 c0 -13 6 -26 13 -29 22 -7 37 4 37 29 0 19 -5 24 -25 24
-20 0 -25 -5 -25 -24z"/>
<path d="M5772 921 c-11 -7 -11 -9 0 -13 17 -6 38 1 38 13 0 11 -21 11 -38 0z"/>
<path d="M7648 2052 c-20 -2 -42 -10 -48 -18 -17 -19 -38 -18 -43 4 -16 59 -1
-96 37 -401 43 -341 84 -670 163 -1324 l37 -313 31 0 31 0 -27 343 c-15 188
-39 495 -53 682 -15 187 -35 450 -46 585 -11 135 -23 289 -26 343 -4 54 -10
99 -13 100 -3 1 -23 1 -43 -1z"/>
</g>
</svg>
